<svg width="212" height="40" fill="none" xmlns="http://www.w3.org/2000/svg"><path d="M56.938 7.5h-4.447v25h4.447v-25zm16.485 7.725c-.949-.531-2.047-.795-3.289-.795-1.53 0-2.817.413-3.85 1.242-.607.487-1.133 1.104-1.585 1.849v-2.738H60.54v17.718h4.243V22.484c0-1.008.17-1.833.502-2.474.338-.641.795-1.118 1.376-1.416.582-.303 1.247-.452 1.998-.452 1.127 0 2.007.338 2.623 1.008.62.671.929 1.655.929 2.952v10.403h4.243V21.431c0-1.52-.268-2.802-.805-3.84-.537-1.04-1.282-1.824-2.23-2.356l.004-.01zm18.612 2.191H92a5.763 5.763 0 00-1.391-1.684 5.572 5.572 0 00-1.828-.984 7.09 7.09 0 00-2.167-.318c-1.51 0-2.837.388-3.984 1.158-1.148.77-2.042 1.843-2.683 3.215-.641 1.37-.964 2.956-.964 4.754 0 1.799.318 3.35.949 4.706.63 1.36 1.525 2.424 2.683 3.194 1.157.77 2.504 1.158 4.034 1.158a6.92 6.92 0 002.171-.328 5.591 5.591 0 001.814-.999A5.708 5.708 0 0092 29.608h.015v2.684c0 1.351-.368 2.39-1.098 3.105-.73.716-1.759 1.073-3.08 1.073-.661 0-1.252-.09-1.78-.268a3.472 3.472 0 01-1.326-.79 2.709 2.709 0 01-.74-1.292l-4.144.015c.16 1.153.572 2.147 1.243 2.986.67.84 1.575 1.486 2.707 1.938 1.133.452 2.48.68 4.035.68 1.555 0 3.03-.263 4.292-.79 1.262-.526 2.261-1.35 2.986-2.484.726-1.128 1.088-2.613 1.088-4.446V14.773H92.02v2.634l.015.01zm-.383 9.053c-.382.845-.914 1.5-1.594 1.962-.681.462-1.481.696-2.4.696-.92 0-1.64-.219-2.3-.656-.661-.437-1.173-1.073-1.546-1.903-.367-.835-.551-1.853-.551-3.06 0-1.208.184-2.231.551-3.06.368-.836.885-1.466 1.545-1.904.661-.437 1.426-.656 2.3-.656.92 0 1.72.234 2.4.696.681.462 1.213 1.118 1.595 1.963.383.844.572 1.833.572 2.96 0 1.128-.19 2.117-.572 2.962zm21.787-9.525a7.562 7.562 0 00-2.683-1.902c-1.038-.443-2.196-.661-3.473-.661-1.654 0-3.12.402-4.397 1.197-1.277.8-2.276 1.893-2.996 3.28-.72 1.385-1.083 2.985-1.083 4.799 0 1.813.353 3.378 1.058 4.774.706 1.392 1.699 2.485 2.986 3.28 1.287.794 2.822 1.192 4.616 1.192 1.376 0 2.633-.248 3.776-.745 1.143-.497 2.087-1.188 2.842-2.072a6.543 6.543 0 001.465-3.07l-3.974.014a3.15 3.15 0 01-.77 1.327c-.368.382-.83.68-1.377.9-.546.218-1.172.327-1.878.327-.983 0-1.818-.214-2.499-.646a4.16 4.16 0 01-1.56-1.803c-.323-.696-.497-1.49-.532-2.385h12.814v-1.158c0-1.351-.204-2.593-.606-3.716-.403-1.123-.979-2.102-1.729-2.927v-.005zm-10.449 4.884c.07-.675.234-1.281.497-1.813a3.98 3.98 0 011.52-1.684c.656-.398 1.436-.597 2.341-.597.904 0 1.689.2 2.35.597.66.397 1.167.963 1.52 1.694.258.531.417 1.138.487 1.803h-8.715zm28.191-6.603c-.949-.531-2.047-.795-3.289-.795-1.53 0-2.817.413-3.851 1.242-.606.487-1.132 1.104-1.584 1.849v-2.738h-4.159v17.718h4.243V22.484c0-1.008.169-1.833.502-2.474.338-.641.795-1.118 1.376-1.416.581-.303 1.247-.452 1.997-.452 1.128 0 2.008.338 2.624 1.008.621.671.929 1.655.929 2.952v10.403h4.243V21.431c0-1.52-.268-2.802-.805-3.84-.537-1.04-1.282-1.824-2.231-2.356l.005-.01zm10.692-.442h-4.243v17.718h4.243V14.783zm.05-7.283h-4.377v4.108h4.377V7.5zm31.857 7.114c-1.142 0-2.062.263-2.757.79-.701.527-1.208 1.297-1.521 2.316h-.064v-2.937h-4.079v17.718h4.243V22.449c0-.919.159-1.684.472-2.3.313-.616.74-1.078 1.282-1.386a3.58 3.58 0 011.803-.462c.427 0 .83.015 1.208.05l.804.069v-3.766l-.621-.03c-.233-.01-.492-.015-.77-.015v.005zm16.654 2.33a7.553 7.553 0 00-2.683-1.902c-1.038-.443-2.196-.661-3.472-.661-1.655 0-3.121.397-4.398 1.197-1.276.8-2.275 1.893-2.995 3.28-.721 1.385-1.084 2.985-1.084 4.799 0 1.813.353 3.378 1.059 4.774.705 1.392 1.699 2.485 2.986 3.28 1.287.794 2.822 1.192 4.615 1.192 1.377 0 2.634-.248 3.776-.745 1.143-.497 2.087-1.188 2.842-2.072a6.554 6.554 0 001.466-3.07l-3.975.014a3.14 3.14 0 01-.77 1.327 3.88 3.88 0 01-1.376.9c-.547.218-1.173.327-1.878.327-.984 0-1.819-.214-2.499-.646a4.154 4.154 0 01-1.56-1.803c-.323-.696-.497-1.49-.532-2.385h12.814v-1.158c0-1.351-.204-2.593-.607-3.716-.402-1.123-.978-2.102-1.729-2.927v-.005zm-10.443 4.884c.069-.675.233-1.281.497-1.813a3.967 3.967 0 011.52-1.684c.656-.398 1.436-.597 2.34-.597.904 0 1.689.2 2.35.597a3.903 3.903 0 011.52 1.694c.259.531.418 1.138.487 1.803h-8.714zm30.416-4.243c-.536-1.038-1.281-1.823-2.23-2.355-.949-.531-2.047-.795-3.289-.795-1.531 0-2.818.413-3.851 1.242-.606.487-1.133 1.104-1.585 1.849v-2.738h-4.158v17.717h4.243V22.49c0-1.008.168-1.833.501-2.474.338-.641.795-1.118 1.377-1.416.581-.303 1.247-.452 1.997-.452 1.128 0 2.007.338 2.623 1.008.621.671.929 1.655.929 2.952V32.51h4.243V21.436c0-1.52-.268-2.802-.805-3.84l.005-.01zm-49.634-3.607l-1.863 2.052a8.154 8.154 0 00-.716-.482c-1.306-.775-2.837-1.167-4.581-1.167-1.743 0-3.274.387-4.59 1.167-1.317.775-2.336 1.863-3.061 3.264-.725 1.397-1.088 3.021-1.088 4.865 0 1.843.363 3.443 1.088 4.824.199.378.417.725.661 1.058l-1.943 2.142 1.794 1.61 1.848-2.038c.224.164.457.323.701.472 1.316.775 2.842 1.168 4.59 1.168 1.749 0 3.275-.388 4.581-1.168 1.307-.775 2.331-1.858 3.061-3.24.73-1.38 1.098-2.99 1.098-4.823 0-1.834-.368-3.468-1.098-4.864a9.152 9.152 0 00-.661-1.069l1.953-2.151-1.779-1.61.005-.01zm-11.601 9.679c0-1.188.184-2.206.546-3.06.363-.855.88-1.516 1.545-1.978.666-.462 1.451-.696 2.355-.696.905 0 1.695.234 2.355.696.12.084.229.179.338.273l-6.737 7.418c-.263-.765-.402-1.645-.402-2.653zm8.347 3.045c-.363.855-.88 1.516-1.546 1.978-.665.462-1.45.695-2.355.695-.904 0-1.704-.233-2.365-.695-.119-.085-.223-.18-.332-.273l6.737-7.428c.268.775.407 1.66.407 2.673 0 1.172-.184 2.19-.546 3.045v.005zM30 15.002H15v24.996h15V15.002zm-15-15H0v15h15v-15z" fill="#000"/></svg>