<svg width="212" height="40" viewBox="0 0 212 40" fill="none" xmlns="http://www.w3.org/2000/svg">
<path d="M56.938 7.49945H52.4913V32.5005H56.938V7.49945Z" fill="black"/>
<path d="M73.4232 15.2253C72.4743 14.6937 71.3763 14.4304 70.1342 14.4304C68.6039 14.4304 67.3171 14.8428 66.2836 15.6725C65.6775 16.1594 65.1508 16.7755 64.6987 17.5207V14.7831H60.5401V32.5005H64.7832V22.4842C64.7832 21.4756 64.9521 20.6508 65.285 20.0099C65.6228 19.369 66.0799 18.892 66.6612 18.5939C67.2425 18.2908 67.9083 18.1418 68.6585 18.1418C69.7864 18.1418 70.6658 18.4797 71.2819 19.1504C71.9029 19.8211 72.2109 20.8049 72.2109 22.1016V32.5055H76.454V21.4309C76.454 19.9106 76.1857 18.6287 75.6491 17.5903C75.1125 16.5519 74.3672 15.7669 73.4183 15.2353L73.4232 15.2253Z" fill="black"/>
<path d="M92.0349 17.4164H92.0001C91.6176 16.7357 91.1555 16.1743 90.609 15.7321C90.0625 15.2899 89.4513 14.962 88.7806 14.7484C88.1099 14.5347 87.3895 14.4304 86.6144 14.4304C85.104 14.4304 83.7774 14.8179 82.6297 15.588C81.482 16.3581 80.5877 17.4313 79.9468 18.8026C79.3058 20.1739 78.9829 21.7588 78.9829 23.5574C78.9829 25.3559 79.3009 26.9061 79.9319 28.2625C80.5629 29.6238 81.4572 30.687 82.6148 31.4571C83.7724 32.2273 85.1189 32.6148 86.6492 32.6148C87.4342 32.6148 88.1546 32.5055 88.8204 32.2869C89.4861 32.0683 90.0873 31.7354 90.6338 31.2882C91.1754 30.8411 91.6325 30.2796 92.0001 29.6089H92.015V32.2918C92.015 33.6433 91.6474 34.6817 90.917 35.3971C90.1867 36.1126 89.1582 36.4703 87.8366 36.4703C87.1758 36.4703 86.5846 36.3808 86.0579 36.202C85.5313 36.0231 85.0891 35.7598 84.7314 35.412C84.3736 35.0642 84.1252 34.6369 83.9911 34.1202L79.8474 34.1351C80.0064 35.2878 80.4188 36.2815 81.0895 37.1211C81.7602 37.9608 82.6645 38.6067 83.7973 39.0588C84.9301 39.511 86.2765 39.7395 87.8316 39.7395C89.3868 39.7395 90.8624 39.4762 92.1244 38.9495C93.3863 38.4229 94.385 37.5981 95.1104 36.4653C95.8358 35.3375 96.1985 33.8519 96.1985 32.0186V14.7732H92.02V17.4065L92.0349 17.4164ZM91.6524 26.4689C91.2698 27.3135 90.7382 27.9693 90.0575 28.4314C89.3768 28.8934 88.5769 29.127 87.6578 29.127C86.7386 29.127 86.0182 28.9083 85.3574 28.4711C84.6966 28.0339 84.1848 27.398 83.8122 26.5682C83.4445 25.7335 83.2607 24.715 83.2607 23.5077C83.2607 22.3004 83.4445 21.2769 83.8122 20.4471C84.1799 19.6124 84.6966 18.9815 85.3574 18.5442C86.0182 18.107 86.7833 17.8884 87.6578 17.8884C88.5769 17.8884 89.3768 18.1219 90.0575 18.584C90.7382 19.046 91.2698 19.7019 91.6524 20.5465C92.0349 21.3911 92.2237 22.3799 92.2237 23.5077C92.2237 24.6355 92.0349 25.6242 91.6524 26.4689Z" fill="black"/>
<path d="M113.439 16.9444C112.689 16.1147 111.794 15.4837 110.756 15.0415C109.718 14.5993 108.56 14.3807 107.283 14.3807C105.629 14.3807 104.163 14.7831 102.886 15.5781C101.609 16.378 100.61 17.4711 99.89 18.8572C99.1696 20.2434 98.8069 21.8433 98.8069 23.6567C98.8069 25.4702 99.1596 27.0353 99.8651 28.4314C100.571 29.8225 101.564 30.9156 102.851 31.7105C104.138 32.5055 105.673 32.903 107.467 32.903C108.843 32.903 110.1 32.6545 111.243 32.1577C112.386 31.6609 113.33 30.9702 114.085 30.0859C114.84 29.2015 115.327 28.178 115.55 27.0154L111.576 27.0303C111.432 27.5321 111.173 27.9743 110.806 28.3569C110.438 28.7394 109.976 29.0375 109.429 29.2561C108.883 29.4748 108.257 29.5841 107.551 29.5841C106.568 29.5841 105.733 29.3704 105.052 28.9382C104.371 28.5059 103.85 27.9047 103.492 27.1346C103.169 26.4391 102.995 25.6441 102.96 24.7498H115.774V23.5921C115.774 22.2407 115.57 20.9986 115.168 19.8758C114.765 18.7529 114.189 17.7741 113.439 16.9494V16.9444ZM102.99 21.8284C103.06 21.1527 103.224 20.5465 103.487 20.0149C103.845 19.2895 104.352 18.7281 105.007 18.3306C105.663 17.9331 106.443 17.7344 107.348 17.7344C108.252 17.7344 109.037 17.9331 109.698 18.3306C110.358 18.7281 110.865 19.2945 111.218 20.0248C111.476 20.5564 111.635 21.1626 111.705 21.8284H102.995H102.99Z" fill="black"/>
<path d="M131.181 15.2253C130.232 14.6937 129.134 14.4304 127.892 14.4304C126.362 14.4304 125.075 14.8428 124.041 15.6725C123.435 16.1594 122.909 16.7755 122.457 17.5207V14.7831H118.298V32.5005H122.541V22.4842C122.541 21.4756 122.71 20.6508 123.043 20.0099C123.381 19.369 123.838 18.892 124.419 18.5939C125 18.2908 125.666 18.1418 126.416 18.1418C127.544 18.1418 128.424 18.4797 129.04 19.1504C129.661 19.8211 129.969 20.8049 129.969 22.1016V32.5055H134.212V21.4309C134.212 19.9106 133.944 18.6287 133.407 17.5903C132.87 16.5519 132.125 15.7669 131.176 15.2353L131.181 15.2253Z" fill="black"/>
<path d="M141.873 14.7832H137.63V32.5005H141.873V14.7832Z" fill="black"/>
<path d="M141.923 7.49945H137.546V11.6083H141.923V7.49945Z" fill="black"/>
<path d="M173.78 14.6142C172.638 14.6142 171.718 14.8775 171.023 15.4042C170.322 15.9309 169.815 16.701 169.502 17.7195H169.438V14.7831H165.359V32.5005H169.602V22.4494C169.602 21.5303 169.761 20.7651 170.074 20.149C170.387 19.533 170.814 19.0709 171.356 18.7628C171.897 18.4548 172.498 18.3008 173.159 18.3008C173.586 18.3008 173.989 18.3157 174.367 18.3505L175.171 18.42V14.654L174.55 14.6242C174.317 14.6142 174.058 14.6093 173.78 14.6093V14.6142Z" fill="black"/>
<path d="M190.434 16.9444C189.684 16.1147 188.79 15.4837 187.751 15.0415C186.713 14.5993 185.555 14.3807 184.279 14.3807C182.624 14.3807 181.158 14.7782 179.881 15.5781C178.605 16.378 177.606 17.4711 176.886 18.8572C176.165 20.2434 175.802 21.8433 175.802 23.6567C175.802 25.4702 176.155 27.0353 176.861 28.4314C177.566 29.8225 178.56 30.9156 179.847 31.7105C181.134 32.5055 182.669 32.903 184.462 32.903C185.839 32.903 187.096 32.6545 188.238 32.1577C189.381 31.6609 190.325 30.9702 191.08 30.0859C191.835 29.2015 192.322 28.178 192.546 27.0154L188.571 27.0303C188.427 27.5321 188.169 27.9743 187.801 28.3569C187.433 28.7394 186.971 29.0375 186.425 29.2561C185.878 29.4748 185.252 29.5841 184.547 29.5841C183.563 29.5841 182.728 29.3704 182.048 28.9382C181.367 28.5059 180.845 27.9047 180.488 27.1346C180.165 26.4391 179.991 25.6441 179.956 24.7498H192.77V23.5921C192.77 22.2407 192.566 20.9986 192.163 19.8758C191.761 18.7529 191.185 17.7741 190.434 16.9494V16.9444ZM179.991 21.8284C180.06 21.1527 180.224 20.5465 180.488 20.0149C180.845 19.2895 181.352 18.7281 182.008 18.3306C182.664 17.9331 183.444 17.7344 184.348 17.7344C185.252 17.7344 186.037 17.9331 186.698 18.3306C187.359 18.7281 187.866 19.2945 188.218 20.0248C188.477 20.5564 188.636 21.1626 188.705 21.8284H179.996H179.991Z" fill="black"/>
<path d="M210.407 17.5853C209.871 16.5469 209.126 15.7619 208.177 15.2303C207.228 14.6987 206.13 14.4354 204.888 14.4354C203.357 14.4354 202.07 14.8477 201.037 15.6775C200.431 16.1644 199.904 16.7805 199.452 17.5257V14.7881H195.294V32.5055H199.537V22.4892C199.537 21.4806 199.705 20.6558 200.038 20.0149C200.376 19.374 200.833 18.897 201.415 18.5989C201.996 18.2958 202.662 18.1468 203.412 18.1468C204.54 18.1468 205.419 18.4846 206.035 19.1554C206.656 19.8261 206.964 20.8098 206.964 22.1066V32.5105H211.207V21.4359C211.207 19.9155 210.939 18.6337 210.402 17.5953L210.407 17.5853Z" fill="black"/>
<path d="M160.773 13.9783L158.91 16.0302C158.681 15.8613 158.448 15.6973 158.194 15.5483C156.888 14.7732 155.357 14.3807 153.613 14.3807C151.87 14.3807 150.339 14.7682 149.023 15.5483C147.706 16.3234 146.687 17.4114 145.962 18.8125C145.237 20.2087 144.874 21.8333 144.874 23.6766C144.874 25.5199 145.237 27.1197 145.962 28.501C146.161 28.8786 146.379 29.2263 146.623 29.5592L144.68 31.7006L146.474 33.3104L148.322 31.2733C148.546 31.4373 148.779 31.5963 149.023 31.7453C150.339 32.5204 151.865 32.9129 153.613 32.9129C155.362 32.9129 156.888 32.5254 158.194 31.7453C159.501 30.9703 160.525 29.8871 161.255 28.5059C161.985 27.1247 162.353 25.5149 162.353 23.6816C162.353 21.8482 161.985 20.2136 161.255 18.8175C161.056 18.4399 160.833 18.0822 160.594 17.7493L162.547 15.598L160.768 13.9882L160.773 13.9783ZM149.172 23.6567C149.172 22.4693 149.356 21.4508 149.718 20.5962C150.081 19.7416 150.598 19.0808 151.263 18.6188C151.929 18.1567 152.714 17.9232 153.618 17.9232C154.523 17.9232 155.313 18.1567 155.973 18.6188C156.093 18.7032 156.202 18.7976 156.311 18.892L149.574 26.3099C149.311 25.5447 149.172 24.6653 149.172 23.6567ZM157.519 26.7024C157.156 27.557 156.639 28.2178 155.973 28.6798C155.308 29.1419 154.523 29.3754 153.618 29.3754C152.714 29.3754 151.914 29.1419 151.253 28.6798C151.134 28.5954 151.03 28.5009 150.921 28.4065L157.658 20.9788C157.926 21.7538 158.065 22.6382 158.065 23.6518C158.065 24.8243 157.881 25.8428 157.519 26.6974V26.7024Z" fill="black"/>
<path d="M29.9993 15.0018H14.9996V39.9979H29.9993V15.0018Z" fill="black"/>
<path d="M14.9996 0.00213623H0V15.0018H14.9996V0.00213623Z" fill="black"/>
</svg>
