<svg width="93" height="28" viewBox="0 0 93 28" fill="none" xmlns="http://www.w3.org/2000/svg">
<g clip-path="url(#clip0_3996_12446)">
<path d="M0.816434 26.9881H2.24188V15.1089H0.857952C0.802595 15.1089 0.774916 15.0951 0.774916 15.0258C0.774916 14.9565 0.802595 14.9426 0.857952 14.9426H3.9026C4.02715 14.9426 4.09634 14.9703 4.16554 15.1089L8.27581 23.107L8.22045 15.1089H7.09947C7.04411 15.1089 7.01643 15.0951 7.01643 15.0258C7.01643 14.9565 7.04411 14.9426 7.09947 14.9426H9.9642C10.0196 14.9426 10.0472 14.9565 10.0472 15.0258C10.0472 15.0951 10.0196 15.1089 9.9642 15.1089H8.69099V27.1961C8.69099 27.307 8.66331 27.3624 8.58027 27.3624H8.49724C8.38652 27.3624 8.35885 27.3485 8.30349 27.2238L2.65706 16.2872L2.6709 27.002H3.91643C3.97179 27.002 3.99947 27.0159 3.99947 27.0852C3.99947 27.1545 3.97179 27.1683 3.91643 27.1683H0.816434C0.761077 27.1683 0.733398 27.1545 0.733398 27.0852C0.733398 27.0159 0.761077 26.9881 0.816434 26.9881Z" fill="#1A1A1A"/>
<path d="M5.78472 7.63785C5.36955 7.63785 4.82981 7.55468 4.37312 7.48538V13.224H5.96463C6.03383 13.224 6.06151 13.2379 6.06151 13.3072C6.06151 13.3765 6.03383 13.3903 5.96463 13.3903H0.871777C0.802581 13.3903 0.774902 13.3765 0.774902 13.3072C0.774902 13.2379 0.802581 13.224 0.871777 13.224H2.29722V1.19231H0.913295C0.844099 1.19231 0.816421 1.17845 0.816421 1.10914C0.816421 1.03983 0.844099 1.02597 0.913295 1.02597H5.70169C8.42803 1.02597 9.93651 2.28736 9.93651 4.26954C9.92267 6.25171 8.46955 7.63785 5.78472 7.63785ZM4.37312 7.31904C4.82981 7.41607 5.38338 7.47152 5.78472 7.47152C6.43517 7.47152 6.87803 7.30518 7.18249 7.00023C7.62535 6.55666 7.90213 5.84973 7.90213 4.26954C7.90213 2.86954 7.61151 2.13488 7.18249 1.69132C6.87803 1.38637 6.53205 1.19231 5.78472 1.19231H4.37312V7.31904Z" fill="#1A1A1A"/>
<path d="M16.7591 6.88912V6.95843C18.7105 7.24952 20.0529 8.06734 20.0529 10.2297V12.4337C20.0529 13.002 20.3435 13.3208 20.7587 13.3208C21.0908 13.3208 21.3815 13.1822 21.6721 12.9327C21.7274 12.8772 21.8243 12.9881 21.769 13.0297C21.423 13.3763 20.9109 13.598 20.219 13.598C18.8627 13.598 17.9908 12.7941 17.9908 11.5466V9.12081C17.9908 7.72081 17.4511 7.08318 16.1364 7.08318H14.4895V13.2238H15.998C16.0672 13.2238 16.0949 13.2376 16.0949 13.3069C16.0949 13.3763 16.0672 13.3901 15.998 13.3901H10.9743C10.9051 13.3901 10.8774 13.3763 10.8774 13.3069C10.8774 13.2376 10.9051 13.2238 10.9743 13.2238H12.4136V1.1921H11.0158C10.9466 1.1921 10.919 1.17823 10.919 1.10893C10.919 1.03962 10.9466 1.02576 11.0158 1.02576H15.6382C18.2261 1.02576 19.8315 2.12081 19.8315 3.96437C19.8453 5.4614 18.5167 6.65348 16.7591 6.88912ZM14.5033 6.91685H15.5966C16.3993 6.91685 16.773 6.75051 17.119 6.39012C17.5203 5.98813 17.8524 5.23962 17.8524 3.96437C17.8524 2.77229 17.5895 2.0515 17.2158 1.67724C16.8699 1.33071 16.4408 1.1921 15.735 1.1921H14.4895V6.91685H14.5033Z" fill="#1A1A1A"/>
<path d="M22.5583 13.2238H23.9837V1.1921H22.586C22.5168 1.1921 22.4891 1.17823 22.4891 1.10893C22.4891 1.03962 22.5168 1.02576 22.586 1.02576H31.3601C31.4985 1.02576 31.54 1.05348 31.54 1.1921V4.74061C31.54 4.80992 31.5262 4.83764 31.457 4.83764C31.3878 4.83764 31.3739 4.80992 31.3739 4.74061C31.2079 2.4119 30.1146 1.1921 27.582 1.1921H26.0596V6.76437H26.1704C27.7342 6.76437 28.5369 6.0713 28.7029 4.39407C28.7029 4.32477 28.7168 4.29704 28.786 4.29704C28.8552 4.29704 28.869 4.32477 28.869 4.39407V9.30101C28.869 9.37031 28.8552 9.39804 28.786 9.39804C28.7168 9.39804 28.7029 9.37031 28.7029 9.30101C28.5369 7.62378 27.7342 6.93071 26.1704 6.93071H26.0596V13.2238H27.7896C30.2945 13.2238 31.5815 11.5188 31.7476 8.98219C31.7476 8.91289 31.7614 8.88516 31.8306 8.88516C31.8998 8.88516 31.9137 8.91289 31.9137 8.98219V13.1822C31.9137 13.3208 31.8583 13.3901 31.7337 13.3901H22.5583C22.4891 13.3901 22.4614 13.3763 22.4614 13.3069C22.4614 13.2515 22.4891 13.2238 22.5583 13.2238Z" fill="#1A1A1A"/>
<path d="M37.3939 0.87326C38.4456 0.87326 38.9854 1.39999 39.9264 1.39999C40.2586 1.39999 40.4247 1.30296 40.5492 1.13663C40.6046 1.06732 40.6184 1.0396 40.6599 1.0396C40.7153 1.0396 40.7291 1.06732 40.7291 1.13663V4.71286C40.7291 4.78217 40.7153 4.80989 40.6461 4.80989C40.5769 4.80989 40.563 4.78217 40.563 4.71286C40.397 2.2594 38.9992 1.0396 37.3939 1.0396C36.1206 1.0396 35.2488 1.69108 35.2488 2.93861C35.2488 4.03366 35.7193 4.85148 38.0581 5.98811C40.48 7.15247 41.4903 8.33069 41.4903 9.92475C41.4903 11.9762 39.788 13.598 37.5322 13.598C36.1345 13.598 35.3318 12.9881 34.5014 12.9881C34.1555 12.9881 33.9479 13.099 33.7956 13.2931C33.7403 13.3624 33.7264 13.3901 33.6849 13.3901C33.6296 13.3901 33.6157 13.3624 33.6157 13.2931V9.05148C33.6157 8.98217 33.6296 8.95445 33.6988 8.95445C33.768 8.95445 33.7818 8.98217 33.7818 9.05148C33.9479 11.7267 35.4425 13.4317 37.5461 13.4317C39.3313 13.4317 40.3001 12.503 40.3001 11.0752C40.3001 9.75841 39.6635 9.05148 37.1032 7.80395C34.7782 6.68118 34.0586 5.46138 34.0586 3.96435C34.0586 2.27326 35.3456 0.87326 37.3939 0.87326Z" fill="#1A1A1A"/>
<path d="M46.8738 0.87326C47.9256 0.87326 48.4653 1.39999 49.4064 1.39999C49.7386 1.39999 49.9046 1.30296 50.0292 1.13663C50.0845 1.06732 50.0984 1.0396 50.1399 1.0396C50.1953 1.0396 50.2091 1.06732 50.2091 1.13663V4.71286C50.2091 4.78217 50.1953 4.80989 50.1261 4.80989C50.0569 4.80989 50.043 4.78217 50.043 4.71286C49.877 2.2594 48.4792 1.0396 46.8738 1.0396C45.6006 1.0396 44.7287 1.69108 44.7287 2.93861C44.7287 4.03366 45.1993 4.85148 47.5381 5.98811C49.96 7.15247 50.9703 8.33069 50.9703 9.92475C50.9703 11.9762 49.268 13.598 47.0122 13.598C45.6145 13.598 44.8118 12.9881 43.9814 12.9881C43.6354 12.9881 43.4278 13.099 43.2756 13.2931C43.2203 13.3624 43.2064 13.3901 43.1649 13.3901C43.1234 13.3901 43.0957 13.3624 43.0957 13.2931V9.05148C43.0957 8.98217 43.1095 8.95445 43.1787 8.95445C43.2479 8.95445 43.2618 8.98217 43.2618 9.05148C43.4278 11.7267 44.9225 13.4317 47.0261 13.4317C48.8113 13.4317 49.7801 12.503 49.7801 11.0752C49.7801 9.75841 49.1435 9.05148 46.5832 7.80395C44.2582 6.68118 43.5386 5.46138 43.5386 3.96435C43.5247 2.27326 44.8256 0.87326 46.8738 0.87326Z" fill="#1A1A1A"/>
<path d="M52.2292 13.2238H53.6546V1.1921H52.2569C52.1877 1.1921 52.16 1.17823 52.16 1.10893C52.16 1.03962 52.1877 1.02576 52.2569 1.02576H61.031C61.1694 1.02576 61.2109 1.05348 61.2109 1.1921V4.74061C61.2109 4.80992 61.1971 4.83764 61.1279 4.83764C61.0587 4.83764 61.0448 4.80992 61.0448 4.74061C60.8788 2.4119 59.7854 1.1921 57.2529 1.1921H55.7305V6.76437H55.8413C57.4051 6.76437 58.2078 6.0713 58.3738 4.39407C58.3738 4.32477 58.3877 4.29704 58.4569 4.29704C58.5261 4.29704 58.5399 4.32477 58.5399 4.39407V9.30101C58.5399 9.37031 58.5261 9.39804 58.4569 9.39804C58.3877 9.39804 58.3738 9.37031 58.3738 9.30101C58.2078 7.62378 57.4051 6.93071 55.8413 6.93071H55.7305V13.2238H57.4604C59.9654 13.2238 61.2524 11.5188 61.4185 8.98219C61.4185 8.91289 61.4323 8.88516 61.5015 8.88516C61.5707 8.88516 61.5846 8.91289 61.5846 8.98219V13.1822C61.5846 13.3208 61.5292 13.3901 61.4046 13.3901H52.2292C52.16 13.3901 52.1323 13.3763 52.1323 13.3069C52.1323 13.2515 52.16 13.2238 52.2292 13.2238Z" fill="#1A1A1A"/>
<path d="M15.8874 26.9881H17.0914V22.7188L13.6731 22.7743L11.6249 26.9881H12.9396C12.995 26.9881 13.0226 27.002 13.0226 27.0713C13.0226 27.1406 12.995 27.1545 12.9396 27.1545H10.1441C10.0887 27.1545 10.061 27.1406 10.061 27.0713C10.061 27.002 10.0887 26.9881 10.1441 26.9881H11.1682L16.9807 15.095H15.9151C15.8597 15.095 15.832 15.0812 15.832 15.0119C15.832 14.9426 15.8597 14.9287 15.9151 14.9287H23.2776C23.3883 14.9287 23.4298 14.9564 23.4298 15.095V18.602C23.4298 18.6713 23.4159 18.699 23.3606 18.699C23.3052 18.699 23.2914 18.6713 23.2914 18.602C23.153 16.301 22.2258 15.095 20.0945 15.095H18.849V20.598H18.9043C20.2191 20.598 20.8972 19.9188 21.0494 18.2554C21.0494 18.1861 21.0633 18.1584 21.1186 18.1584C21.174 18.1584 21.1878 18.1861 21.1878 18.2554V23.1069C21.1878 23.1762 21.174 23.204 21.1186 23.204C21.0633 23.204 21.0494 23.1762 21.0494 23.1069C20.911 21.4436 20.2329 20.7644 18.9043 20.7644H18.849V26.9881H20.2606C22.378 26.9881 23.4575 25.2693 23.6097 22.802C23.6097 22.7327 23.6235 22.7049 23.6789 22.7049C23.7343 22.7049 23.7481 22.7327 23.7481 22.802V26.9604C23.7481 27.099 23.7066 27.1545 23.5959 27.1545H15.9012C15.8459 27.1545 15.8182 27.1406 15.8182 27.0713C15.8182 27.002 15.832 26.9881 15.8874 26.9881ZM17.0914 22.303V15.6911L13.9084 22.303H17.0914Z" fill="#1A1A1A"/>
<path d="M24.5093 14.9426H29.3254C29.3807 14.9426 29.4084 14.9565 29.4084 15.0258C29.4084 15.0951 29.3807 15.1089 29.3254 15.1089H27.4848L29.8236 23.8277L32.2039 15.1089H30.9861C30.9307 15.1089 30.9031 15.0951 30.9031 15.0258C30.9031 14.9565 30.9307 14.9426 30.9861 14.9426H33.7816C33.837 14.9426 33.8647 14.9565 33.8647 15.0258C33.8647 15.0951 33.837 15.1089 33.7816 15.1089H32.6468L29.3254 27.1683C29.2977 27.307 29.27 27.3624 29.2008 27.3624C29.1316 27.3624 29.1039 27.2931 29.0624 27.1683L25.7548 15.1089H24.5093C24.4539 15.1089 24.4263 15.0951 24.4263 15.0258C24.4263 14.9565 24.4539 14.9426 24.5093 14.9426Z" fill="#1A1A1A"/>
<path d="M34.2798 26.9881H35.7053V15.1089H34.3213C34.266 15.1089 34.2383 15.0951 34.2383 15.0258C34.2383 14.9565 34.266 14.9426 34.3213 14.9426H37.366C37.4905 14.9426 37.5597 14.9703 37.6289 15.1089L41.7392 23.107L41.67 15.1089H40.549C40.4937 15.1089 40.466 15.0951 40.466 15.0258C40.466 14.9565 40.4937 14.9426 40.549 14.9426H43.4137C43.4691 14.9426 43.4968 14.9565 43.4968 15.0258C43.4968 15.0951 43.4691 15.1089 43.4137 15.1089H42.1405V27.1961C42.1405 27.307 42.1128 27.3624 42.0298 27.3624H41.9468C41.8361 27.3624 41.8084 27.3485 41.753 27.2238L36.1066 16.2872L36.1204 27.002H37.366C37.4213 27.002 37.449 27.0159 37.449 27.0852C37.449 27.1545 37.4213 27.1683 37.366 27.1683H34.2798C34.2245 27.1683 34.1968 27.1545 34.1968 27.0852C34.1968 27.0159 34.2245 26.9881 34.2798 26.9881Z" fill="#1A1A1A"/>
<path d="M44.4378 26.9881H45.6419V15.1089H44.4655C44.4102 15.1089 44.3825 15.0951 44.3825 15.0258C44.3825 14.9565 44.4102 14.9426 44.4655 14.9426H51.8695C51.9803 14.9426 52.0218 14.9703 52.0218 15.1089V18.6159C52.0218 18.6852 52.0079 18.7129 51.9526 18.7129C51.8972 18.7129 51.8834 18.6852 51.8834 18.6159C51.745 16.3149 50.8178 15.1089 48.6865 15.1089H47.3995V20.6119H47.4963C48.8111 20.6119 49.4892 19.9327 49.6414 18.2693C49.6414 18.2 49.6553 18.1723 49.7106 18.1723C49.766 18.1723 49.7798 18.2 49.7798 18.2693V23.1208C49.7798 23.1901 49.766 23.2178 49.7106 23.2178C49.6553 23.2178 49.6414 23.1901 49.6414 23.1208C49.503 21.4574 48.8249 20.7782 47.4963 20.7782H47.3995V27.002H48.8526C50.97 27.002 52.0495 25.3248 52.2017 22.8159C52.2017 22.7466 52.2155 22.7188 52.2709 22.7188C52.3262 22.7188 52.3401 22.7466 52.3401 22.8159V26.9743C52.3401 27.1129 52.2986 27.1683 52.1878 27.1683H44.4517C44.3963 27.1683 44.3687 27.1545 44.3687 27.0852C44.3687 27.0159 44.3825 26.9881 44.4378 26.9881Z" fill="#1A1A1A"/>
<path d="M54.9973 26.9881H56.6026V15.1089H56.3259C54.5406 15.1089 53.641 16.8416 53.5027 19.1426C53.5027 19.2119 53.4888 19.2396 53.4335 19.2396C53.3781 19.2396 53.3643 19.2119 53.3643 19.1426V15.1089C53.3643 14.9565 53.4058 14.9426 53.5165 14.9426H61.4464C61.5571 14.9426 61.5986 14.9703 61.5986 15.1089V19.1426C61.5986 19.2258 61.5848 19.2396 61.5294 19.2396C61.4741 19.2396 61.4602 19.2258 61.4602 19.1426C61.3218 16.8277 60.4638 15.1089 58.6785 15.1089H58.3464V27.002H59.9656C60.021 27.002 60.0486 27.0159 60.0486 27.0852C60.0486 27.1545 60.021 27.1683 59.9656 27.1683H55.0111C54.9558 27.1683 54.9281 27.1545 54.9281 27.0852C54.9281 27.0159 54.9419 26.9881 54.9973 26.9881Z" fill="#1A1A1A"/>
<path d="M86.9941 3.34163L86.9248 3.31287C86.9525 3.31287 86.9664 3.32725 86.9941 3.34163Z" fill="#1A1A1A"/>
<path d="M71.2586 3.20197C69.9577 4.14454 68.8506 5.29503 67.9648 6.61186C68.2831 6.30691 68.6015 6.05741 68.9198 5.8079C69.6671 5.23959 70.4282 4.64355 71.2586 3.20197Z" fill="#1A1A1A"/>
<path d="M67.0926 10.5208C67.1341 10.3129 66.9819 10.1881 66.8712 10.1465C66.7051 10.0911 66.5528 10.1465 66.5113 10.2851C66.5113 10.3129 66.4975 10.3267 66.4975 10.3544C66.2484 11.1445 66.193 11.7683 66.1515 12.3921C66.0961 13.0713 66.0408 13.7228 65.7363 14.5683C65.7502 14.998 65.7917 15.4277 65.847 15.8574C66.622 14.3604 66.6912 13.3901 66.7743 12.4475C66.8158 11.8376 66.8711 11.2554 67.0926 10.5208Z" fill="#1A1A1A"/>
<path d="M69.6529 5.9188C68.864 6.52871 68.0614 7.15247 67.1757 8.77425C67.0373 9.02376 66.9265 9.2594 66.8297 9.48118C66.7605 9.63366 66.8297 9.78613 66.9542 9.8693C67.0926 9.95247 67.3417 9.88316 67.4248 9.73069C67.5216 9.52276 67.6185 9.31484 67.7431 9.0792C68.5596 7.56831 69.2792 7.01385 70.0404 6.43167C70.8292 5.82177 71.6319 5.19801 72.5176 3.57623C72.8221 3.00791 73.0297 2.52276 73.1819 2.06534C72.8913 2.20395 72.6145 2.35643 72.3377 2.52276C72.2408 2.75841 72.1163 3.00791 71.9779 3.27128C71.1337 4.76831 70.414 5.32276 69.6529 5.9188Z" fill="#1A1A1A"/>
<path d="M68.0204 13.1267C68.0896 12.1564 68.1726 11.2554 68.9753 9.74454C69.7918 8.23365 70.5114 7.67919 71.2726 7.09701C71.757 6.72276 72.2413 6.3485 72.7534 5.72474C72.8779 5.57226 72.7949 5.40592 72.6842 5.30889C72.5596 5.21187 72.3797 5.198 72.2967 5.28117C71.8262 5.86335 71.3556 6.22375 70.8851 6.58414C70.0963 7.19404 69.2936 7.81781 68.4079 9.43959C67.536 11.0614 67.4529 12.0871 67.3699 13.0713C67.3007 14.0416 67.2177 14.9426 66.415 16.4534C66.2904 16.6752 66.1797 16.8832 66.0552 17.0634C66.069 17.1188 66.0829 17.1742 66.0967 17.2297C66.1521 17.4376 66.2074 17.6594 66.2766 17.8673C66.498 17.5485 66.7333 17.1881 66.9686 16.7584C67.8681 15.1366 67.9512 14.1109 68.0204 13.1267Z" fill="#1A1A1A"/>
<path d="M72.7944 4.62969C72.6837 4.78217 72.8083 4.97623 72.9051 5.03167C73.0574 5.11484 73.2373 5.10098 73.3065 4.99009C73.4449 4.7683 73.5971 4.5188 73.7493 4.24157C74.3998 3.04949 74.6074 2.19009 74.7042 1.41385C74.469 1.49702 74.2475 1.58019 74.0261 1.66335C73.9154 2.30098 73.694 2.99405 73.1958 3.93662C73.0574 4.19999 72.919 4.42177 72.7944 4.62969Z" fill="#1A1A1A"/>
<path d="M68.8369 16.1208C68.8645 15.9129 68.7538 15.802 68.6016 15.7465C68.4355 15.6911 68.2695 15.7604 68.2141 15.9822C68.0895 16.3287 67.9235 16.703 67.6882 17.1188C67.3007 17.8257 66.9409 18.3247 66.5811 18.7129C66.6641 18.9346 66.7471 19.1426 66.844 19.3505C67.2869 18.8931 67.7574 18.3109 68.2418 17.4099C68.5047 16.9525 68.6846 16.5089 68.8369 16.1208Z" fill="#1A1A1A"/>
<path d="M74.4556 4.61582C73.6391 6.12671 72.9195 6.68116 72.1583 7.26334C71.3695 7.87324 70.5668 8.49701 69.6811 10.1188C68.8092 11.7406 68.7262 12.7663 68.6431 13.7505C68.6154 14.1386 68.5739 14.5267 68.5047 14.9426C68.477 15.1505 68.5186 15.2891 68.7262 15.3168C68.9337 15.3445 69.0583 15.2614 69.1137 15.095C69.1967 14.6376 69.2382 14.2218 69.2659 13.8059C69.3351 12.8356 69.4181 11.9346 70.2208 10.4237C71.0373 8.91285 71.757 8.35839 72.5181 7.77622C73.307 7.16631 74.1096 6.54255 74.9954 4.92077C75.8672 3.29899 75.9503 2.27325 76.0333 1.28909C76.0333 1.20592 76.0471 1.12275 76.0471 1.03958C75.9641 1.05344 75.8949 1.08116 75.8119 1.09503C75.6735 1.13661 75.5351 1.16433 75.3967 1.20592C75.3967 1.21978 75.3967 1.23364 75.3967 1.2475C75.3413 2.20394 75.2583 3.11879 74.4556 4.61582Z" fill="#1A1A1A"/>
<path d="M69.4871 18.1168C70.359 16.4951 70.442 15.4693 70.5251 14.4852C70.5943 13.5149 70.6773 12.6139 71.48 11.103C72.2965 9.59208 73.0161 9.03763 73.7773 8.45545C74.5661 7.84555 75.3688 7.22178 76.2545 5.6C77.1264 3.97822 77.2094 2.95248 77.2925 1.96832C77.3201 1.5802 77.3478 1.20594 77.4309 0.7901C77.2094 0.817823 76.988 0.845545 76.7666 0.887129C76.7112 1.24753 76.6835 1.5802 76.6559 1.91287C76.5867 2.88317 76.5036 3.78416 75.701 5.29505C74.8844 6.80594 74.1648 7.3604 73.4036 7.94258C72.6148 8.55248 71.8121 9.17624 70.9264 10.798C70.0545 12.4198 69.9715 13.4455 69.8885 14.4297C69.8193 15.4 69.7362 16.301 68.9335 17.8119C68.3108 18.9624 67.7434 19.5584 67.1621 20.0436C67.259 20.2376 67.3559 20.4317 67.4666 20.6119C68.1032 20.0852 68.7675 19.4337 69.4871 18.1168Z" fill="#1A1A1A"/>
<path d="M75.5071 8.74652C75.2441 8.92672 74.995 9.12078 74.7598 9.3287C74.8428 9.25939 74.9397 9.19008 75.0227 9.12078C75.1888 9.00989 75.3548 8.88513 75.5071 8.74652Z" fill="#1A1A1A"/>
<path d="M76.9464 5.97424C76.1299 7.48513 75.4102 8.03959 74.6491 8.62177C73.8602 9.23167 73.0575 9.85543 72.1718 11.4772C71.3 13.099 71.2169 14.1247 71.1339 15.1089C71.0647 16.0792 70.9817 16.9802 70.179 18.4911C69.8192 19.1703 69.4732 19.6554 69.1272 20.0297C68.975 20.196 69.0857 20.3624 69.1549 20.4317C69.2241 20.501 69.4455 20.5841 69.6116 20.4317C69.9714 20.0158 70.345 19.503 70.7325 18.796C71.6044 17.1742 71.6875 16.1485 71.7705 15.1643C71.8397 14.194 71.9227 13.2931 72.7254 11.7822C73.445 10.4515 74.0955 9.85543 74.7598 9.3287C74.995 9.12078 75.2442 8.92672 75.5071 8.74652C76.1437 8.21979 76.7942 7.5683 77.5 6.27919C78.3718 4.65741 78.4549 3.63167 78.5379 2.64751C78.5794 2.03761 78.6348 1.44157 78.8701 0.693054C78.6486 0.693054 78.4272 0.706915 78.2058 0.720777C77.9982 1.42771 77.9567 2.02375 77.9151 2.59206C77.8321 3.56236 77.7629 4.46335 76.9464 5.97424Z" fill="#1A1A1A"/>
<path d="M78.2887 7.7208C78.3856 7.56833 78.4963 7.40199 78.5932 7.22179C78.7039 7.05546 78.5378 6.90298 78.4409 6.84754C78.3441 6.79209 78.1503 6.70892 78.0534 6.88912C77.832 7.27724 77.6106 7.60991 77.3892 7.88714C77.4307 7.87328 77.4722 7.85942 77.4999 7.85942C77.7628 7.80397 78.0258 7.74853 78.2887 7.7208Z" fill="#1A1A1A"/>
<path d="M71.9782 19.4614C72.8085 17.9228 72.9193 16.9247 73.0023 15.9822C72.9608 15.8436 72.9193 15.6911 72.8777 15.5525C72.7394 14.9842 72.684 14.4297 72.6978 13.8752C72.4764 14.6099 72.4349 15.2059 72.3934 15.7881C72.3242 16.7584 72.2411 17.6594 71.4385 19.1703C70.6219 20.6812 69.9023 21.2356 69.1411 21.8178C68.9612 21.9564 68.7675 22.1089 68.5737 22.2614C68.6983 22.4277 68.8367 22.5941 68.9751 22.7465C69.155 22.5941 69.3349 22.4554 69.5148 22.3168C70.2898 21.7069 71.1063 21.0832 71.9782 19.4614Z" fill="#1A1A1A"/>
<path d="M78.9668 4.71286C78.9253 4.90692 79.1605 4.97622 79.2436 5.00395C79.3404 5.03167 79.548 5.00395 79.5757 4.85147C79.7141 4.28315 79.7418 3.798 79.7833 3.31286C79.8387 2.53662 79.9079 1.7881 80.3507 0.748499C80.1293 0.720776 79.9079 0.706916 79.6864 0.693054C79.2712 1.73266 79.2159 2.5089 79.1605 3.25741C79.119 3.74256 79.0775 4.19998 78.9668 4.71286Z" fill="#1A1A1A"/>
<path d="M78.7317 6.27919C79.0085 6.43166 79.1192 6.19602 79.1331 6.1683C79.1608 6.11285 79.1884 6.04354 79.2161 5.9881C79.2161 5.97424 79.2992 5.76632 79.0224 5.64156C78.7733 5.53067 78.6487 5.73859 78.6349 5.75246C78.6072 5.8079 78.5934 5.84949 78.5657 5.90493C78.5518 5.93265 78.4826 6.1683 78.7317 6.27919Z" fill="#1A1A1A"/>
<path d="M73.2376 20.1406C73.5559 19.5584 73.7635 19.0456 73.9157 18.5881C73.9296 18.5604 73.9019 18.297 73.6528 18.2693C73.4175 18.2 73.3206 18.3248 73.2929 18.4634C73.1546 18.8654 72.9608 19.3228 72.684 19.8495C71.8675 21.3604 71.1479 21.9149 70.3867 22.497C70.0822 22.7327 69.7639 22.9683 69.4595 23.2733C69.6117 23.4258 69.7501 23.5782 69.9023 23.7168C70.1929 23.4396 70.4836 23.2178 70.7742 22.9961C71.5492 22.3861 72.3519 21.7624 73.2376 20.1406Z" fill="#1A1A1A"/>
<path d="M73.5284 17.4518C73.5145 17.6323 73.6393 17.7989 73.8333 17.7989C73.8749 17.7989 73.9027 17.7989 73.9304 17.7989C73.7918 17.6184 73.6809 17.4379 73.5561 17.2436C73.5561 17.2991 73.5423 17.3824 73.5284 17.4518Z" fill="#1A1A1A"/>
<path d="M79.4511 7.33267C79.3819 7.45742 79.3127 7.56832 79.2573 7.67921C79.4926 7.69307 79.7279 7.70693 79.9493 7.73465C79.977 7.69307 79.9908 7.66535 80.0185 7.62376C80.8904 6.00198 80.9734 4.97624 81.0564 3.99208C81.1256 3.10495 81.1948 2.27327 81.8314 0.984159C81.6238 0.942575 81.4024 0.90099 81.1948 0.859406C80.5721 2.17624 80.5029 3.07723 80.4337 3.95049C80.3368 4.92079 80.2537 5.82178 79.4511 7.33267Z" fill="#1A1A1A"/>
<path d="M80.7383 7.91486C80.9459 7.9703 81.1396 8.03961 81.3472 8.12278C82.136 6.61189 82.2052 5.62773 82.2883 4.68515C82.3575 3.74258 82.4405 2.84159 83.2155 1.37228C83.0079 1.30297 82.8142 1.24753 82.6066 1.17822C81.8177 2.68911 81.7347 3.67327 81.6655 4.62971C81.5825 5.57228 81.5133 6.47327 80.7383 7.91486Z" fill="#1A1A1A"/>
<path d="M72.0057 23.6752C72.7946 23.0653 73.5973 22.4416 74.483 20.8198C74.8428 20.1545 75.0642 19.5861 75.2164 19.0871C75.0365 18.9485 74.8566 18.796 74.6906 18.6297C74.566 19.1703 74.3446 19.7663 73.9294 20.5148C73.1129 22.0257 72.3932 22.5802 71.6321 23.1624C71.2446 23.4673 70.8432 23.7723 70.4419 24.1881C70.608 24.3267 70.774 24.4515 70.9401 24.5901C71.2861 24.2297 71.6459 23.9525 72.0057 23.6752Z" fill="#1A1A1A"/>
<path d="M73.2652 24.3545C74.0541 23.7446 74.8567 23.1208 75.7425 21.499C76.0884 20.8475 76.3099 20.3069 76.4621 19.8218C76.2683 19.7386 76.0746 19.6416 75.8947 19.5307C75.7563 20.0158 75.5487 20.5564 75.1889 21.2079C74.3724 22.7188 73.6527 23.2733 72.8916 23.8555C72.4625 24.1881 72.0197 24.5347 71.563 25.0475C71.7429 25.1723 71.9228 25.2832 72.1027 25.3941C72.4764 24.9644 72.8639 24.6594 73.2652 24.3545Z" fill="#1A1A1A"/>
<path d="M83.534 5.35049C83.6032 4.38019 83.6863 3.4792 84.4889 1.96831L83.9354 1.66336C83.0635 3.28514 82.9805 4.31089 82.8974 5.29504C82.8282 6.20989 82.759 7.0693 82.0532 8.44158C82.2331 8.53861 82.413 8.6495 82.5929 8.77425C83.3818 7.27722 83.4648 6.30693 83.534 5.35049Z" fill="#1A1A1A"/>
<path d="M73.8329 25.5742C73.9851 25.4218 73.8744 25.2554 73.8052 25.1723C73.7498 25.103 73.5838 24.9921 73.4454 25.0752C73.2101 25.2693 72.9887 25.5049 72.7534 25.7683C72.9472 25.8653 73.1409 25.9762 73.3347 26.0594C73.5007 25.8792 73.6668 25.7267 73.8329 25.5742Z" fill="#1A1A1A"/>
<path d="M83.7 9.74454C83.7139 9.71682 83.7277 9.68909 83.7415 9.66137C84.6134 8.03959 84.6964 7.01385 84.7795 6.02969C84.8487 5.05939 84.9317 4.1584 85.7344 2.64751L85.1808 2.34256C84.309 3.96434 84.2259 4.99009 84.1429 5.97424C84.0737 6.91682 83.9907 7.81781 83.2295 9.27325C83.3956 9.42573 83.5616 9.5782 83.7 9.74454Z" fill="#1A1A1A"/>
<path d="M76.4205 21.8733C76.0469 22.5663 75.687 23.0515 75.3411 23.4396C75.2303 23.5921 75.3134 23.7168 75.3826 23.8C75.4518 23.897 75.5763 23.9941 75.7424 23.9386C76.1437 23.5089 76.5589 22.9545 76.9741 22.1644C77.3893 21.402 77.6245 20.7782 77.7629 20.2238C77.5553 20.1822 77.3478 20.1267 77.154 20.0713C77.0294 20.598 76.808 21.1663 76.4205 21.8733Z" fill="#1A1A1A"/>
<path d="M74.5106 25.0337C74.7182 24.8673 74.9396 24.701 75.1611 24.5069C75.3133 24.3406 75.2303 24.1881 75.1472 24.1049C75.0365 23.9802 74.8566 23.9525 74.7459 24.0218C74.5383 24.202 74.3307 24.3545 74.1231 24.5208C74.0954 24.5485 74.0678 24.5624 74.0401 24.5901C73.9294 24.701 73.9986 24.9228 74.0678 24.9921C74.137 25.0752 74.3169 25.1584 74.4691 25.0614C74.4829 25.0475 74.4968 25.0475 74.5106 25.0337Z" fill="#1A1A1A"/>
<path d="M75.7564 25.7129C76.5453 25.103 77.348 24.4792 78.2337 22.8574C78.7872 21.8317 79.0225 21.0554 79.1471 20.3762C78.9395 20.3762 78.718 20.3762 78.5105 20.3485C78.3997 20.9584 78.1783 21.6515 77.6801 22.5525C76.8636 24.0634 76.1439 24.6178 75.3828 25.2C74.9538 25.5327 74.5109 25.8653 74.0542 26.3782C74.2618 26.4614 74.4832 26.5446 74.6908 26.6139C75.0506 26.2535 75.3966 25.9901 75.7564 25.7129Z" fill="#1A1A1A"/>
<path d="M85.4022 6.66733C85.333 7.63763 85.25 8.53862 84.4473 10.0495C84.3781 10.1743 84.3089 10.299 84.2397 10.4099C84.3781 10.604 84.5027 10.798 84.6134 11.0059C84.738 10.798 84.8764 10.5901 85.0009 10.3406C85.8728 8.71881 85.9558 7.69307 86.0389 6.70891C86.108 5.75248 86.1911 4.83763 86.9938 3.3406C86.9799 3.32674 86.9522 3.31287 86.9384 3.29901L86.4402 3.03564C85.5683 4.65743 85.4853 5.68317 85.4022 6.66733Z" fill="#1A1A1A"/>
<path d="M79.2301 23.9663C79.3131 23.8554 79.2439 23.6891 79.0917 23.5643C78.9256 23.4396 78.7734 23.5089 78.7319 23.5782C77.9984 24.8257 77.3341 25.3386 76.6283 25.8792C76.4346 26.0317 76.5037 26.2257 76.5729 26.3089C76.6421 26.3921 76.8359 26.5168 77.0158 26.3921C77.7216 25.8376 78.4413 25.2693 79.2301 23.9663Z" fill="#1A1A1A"/>
<path d="M76.213 26.6139C76.1161 26.503 75.9639 26.4198 75.8255 26.5446C75.7148 26.6416 75.604 26.7525 75.4795 26.8772C75.7148 26.9465 75.9639 27.002 76.1991 27.0574C76.2268 27.0297 76.2545 27.0158 76.2683 26.9881C76.3098 26.9465 76.379 26.7802 76.213 26.6139Z" fill="#1A1A1A"/>
<path d="M85.6926 10.7148C85.4435 11.1723 85.2082 11.5327 84.9868 11.8376C85.0699 12.0455 85.1252 12.2673 85.1944 12.4891C85.1944 12.5168 85.2083 12.5445 85.2083 12.5723C85.5542 12.1703 85.9002 11.6851 86.26 11.0198C87.1319 9.39802 87.2149 8.37227 87.298 7.38812C87.3672 6.48712 87.4364 5.62772 88.1145 4.2693C87.9623 4.11683 87.7962 3.97821 87.6301 3.8396C86.8136 5.39207 86.7444 6.37623 86.6614 7.33267C86.5783 8.30297 86.5091 9.21782 85.6926 10.7148Z" fill="#1A1A1A"/>
<path d="M79.1883 22.7188C79.0914 22.9129 79.0499 23.0376 79.2437 23.1762C79.4097 23.3287 79.6312 23.2317 79.6865 23.1208C80.2954 21.8871 80.42 21.0139 80.4892 20.196C80.2816 20.2515 80.0602 20.2792 79.8526 20.3069C79.7834 21.0139 79.6727 21.7485 79.1883 22.7188Z" fill="#1A1A1A"/>
<path d="M85.3605 14.2911C85.4574 14.2079 85.5543 14.1386 85.6511 14.0554C85.7619 13.9723 85.6788 13.7643 85.6096 13.6812C85.5681 13.6257 85.4574 13.5564 85.3467 13.5564C85.3744 13.8059 85.3744 14.0416 85.3605 14.2911Z" fill="#1A1A1A"/>
<path d="M80.7242 24.2158C81.5961 22.594 81.6791 21.5683 81.7621 20.5841C81.7898 20.2931 81.8037 20.0158 81.8452 19.7109C81.6238 19.8218 81.4023 19.9188 81.1809 20.002C81.1671 20.1822 81.1532 20.3624 81.1394 20.5426C81.0702 21.5129 80.9872 22.4138 80.1845 23.9247C79.368 25.4356 78.6483 25.9901 77.8871 26.5723C77.6242 26.7802 77.3613 26.9742 77.0845 27.2237C77.3751 27.2653 77.6519 27.3069 77.9425 27.3208C78.0532 27.2376 78.1501 27.1544 78.2608 27.0713C79.0358 26.4614 79.8523 25.8376 80.7242 24.2158Z" fill="#1A1A1A"/>
<path d="M86.9386 11.394C86.5788 12.0594 86.2328 12.5445 85.9007 12.9188C85.8177 13.0713 85.8038 13.2237 85.9145 13.3346C85.9837 13.4178 86.219 13.5148 86.3159 13.3901C86.6895 12.9742 87.077 12.4336 87.4784 11.699C88.3502 10.0772 88.4333 9.05147 88.5163 8.06731C88.5855 7.26335 88.6409 6.48711 89.1391 5.36434C88.9869 5.18414 88.8346 5.01781 88.6824 4.85147C88.0319 6.20989 87.9627 7.12474 87.8936 8.01187C87.8244 8.98216 87.7552 9.89701 86.9386 11.394Z" fill="#1A1A1A"/>
<path d="M81.9836 24.895C82.8555 23.2733 82.9385 22.2475 83.0215 21.2634C83.0907 20.3624 83.1599 19.5168 83.8242 18.1861C83.5059 18.5604 83.1323 18.8931 82.7309 19.1841C82.4818 19.9604 82.4403 20.598 82.3849 21.2079C82.3157 22.1782 82.2327 23.0792 81.43 24.5901C80.6135 26.101 79.8939 26.6554 79.1327 27.2376C79.0773 27.2792 79.0358 27.3208 78.9805 27.3485C79.3403 27.3485 79.7001 27.3346 80.0461 27.3069C80.655 26.8079 81.2916 26.1426 81.9836 24.895Z" fill="#1A1A1A"/>
<path d="M88.1977 12.0733C87.3812 13.5842 86.6616 14.1386 85.9004 14.7208C85.6928 14.8871 85.4714 15.0535 85.2638 15.2337C85.1808 15.6911 85.0285 16.1347 84.8486 16.5505C85.333 15.9545 85.8035 15.5941 86.2879 15.2198C87.0768 14.6099 87.8794 13.9861 88.7652 12.3644C89.637 10.7426 89.7201 9.71684 89.8031 8.73268C89.8585 8.09506 89.9 7.4713 90.1768 6.6812C90.0384 6.47328 89.8861 6.25149 89.7339 6.05743C89.2911 7.12476 89.2357 7.91486 89.1803 8.6911C89.0835 9.66139 89.0004 10.5762 88.1977 12.0733Z" fill="#1A1A1A"/>
<path d="M86.4679 19.2396C87.2845 17.7287 88.0041 17.1742 88.7653 16.5921C89.1389 16.301 89.5126 16.0099 89.9001 15.6079C90.0385 15.4277 89.9139 15.2614 89.8447 15.1782C89.7755 15.1089 89.6233 15.0396 89.4711 15.1505C89.1112 15.5247 88.7514 15.8158 88.3778 16.093C87.5889 16.7029 86.7862 17.3267 85.9005 18.9485C85.0287 20.5703 84.9456 21.596 84.8626 22.5802C84.7934 23.5505 84.7103 24.4515 83.9077 25.9623C83.7831 26.1841 83.6586 26.3921 83.5479 26.5722C83.88 26.4614 84.1983 26.3227 84.5028 26.1841C85.347 24.6039 85.43 23.5921 85.4992 22.6218C85.5822 21.6515 85.6653 20.7366 86.4679 19.2396Z" fill="#1A1A1A"/>
<path d="M90.6057 14.7624C90.7441 14.5545 90.6195 14.3604 90.5365 14.2911C90.4535 14.2357 90.2597 14.1802 90.1213 14.3465C89.9691 14.5406 90.0798 14.7208 90.149 14.7763C90.3428 14.9426 90.5365 14.8594 90.6057 14.7624Z" fill="#1A1A1A"/>
<path d="M90.6891 13.4317C90.6752 13.4594 90.6614 13.4733 90.6476 13.501C90.5368 13.6812 90.6476 13.8198 90.7168 13.8891C90.8136 13.9584 91.0212 14.0416 91.1596 13.8891C91.1873 13.8475 91.215 13.7921 91.2426 13.7505C91.727 12.8634 91.9623 12.1426 92.1007 11.5327C92.0592 11.297 92.0038 11.0752 91.9485 10.8396C91.8654 10.5069 91.7685 10.1881 91.6717 9.86929C91.6717 9.9386 91.6578 10.0079 91.6578 10.0772C91.5748 11.0198 91.5056 11.9208 90.6891 13.4317Z" fill="#1A1A1A"/>
<path d="M87.7276 19.9188C87.7968 19.7802 87.866 19.6554 87.949 19.5445C88.0459 19.3782 88.0044 19.1841 87.8383 19.0733C87.6584 18.9485 87.52 19.0317 87.4785 19.0871C87.3816 19.2535 87.2847 19.4198 87.174 19.6139C86.3021 21.2356 86.2191 22.2614 86.1361 23.2455C86.0807 23.9663 86.0253 24.6594 85.6655 25.5881C85.9562 25.4218 86.2329 25.2554 86.5097 25.0614C86.6896 24.396 86.7312 23.8416 86.7727 23.2871C86.8419 22.3307 86.9111 21.4158 87.7276 19.9188Z" fill="#1A1A1A"/>
<path d="M89.6373 16.7584C89.1252 17.1604 88.5993 17.5624 88.0458 18.2555C87.9212 18.4218 88.0458 18.6158 88.115 18.6852C88.198 18.7545 88.4333 18.796 88.5163 18.6713C89.0283 18.0198 89.5127 17.6456 90.0109 17.2574C90.7444 16.6891 91.5056 16.1069 92.3083 14.7069C92.3359 14.2495 92.3359 13.7782 92.3083 13.3208C92.1975 13.5703 92.073 13.8198 91.9208 14.1109C91.1319 15.6218 90.3984 16.1762 89.6373 16.7584Z" fill="#1A1A1A"/>
<path d="M91.2699 17.9366C91.4775 17.7842 91.6851 17.6178 91.8926 17.4376C91.9895 17.0634 92.0726 16.6891 92.1418 16.3148C91.7266 16.7861 91.3114 17.1049 90.8824 17.4376C90.0935 18.0475 89.2909 18.6713 88.4051 20.2931C87.5333 21.9148 87.4502 22.9406 87.3672 23.9248C87.3534 24.1049 87.3395 24.2713 87.3257 24.4515C87.561 24.2574 87.7824 24.0634 88.0038 23.8693C88.073 22.9406 88.1699 22.0535 88.9587 20.598C89.7891 19.0871 90.5087 18.5327 91.2699 17.9366Z" fill="#1A1A1A"/>
<path d="M84.2256 22.3861C84.2394 22.303 84.1426 22.1089 83.9073 22.0812C83.6997 22.0673 83.6167 22.2198 83.6028 22.303C83.5198 23.1208 83.3676 23.9802 82.6756 25.2693C82.1912 26.1703 81.7345 26.7386 81.2778 27.1683C81.5961 27.1129 81.9144 27.0436 82.2327 26.9604C82.2604 26.9465 82.3019 26.9465 82.3296 26.9327C82.6202 26.5723 82.9109 26.1287 83.2153 25.5604C83.9765 24.1881 84.1426 23.2455 84.2256 22.3861Z" fill="#1A1A1A"/>
<path d="M89.4432 12.7525C88.6267 14.2633 87.907 14.8178 87.1459 15.4C86.357 16.0099 85.5543 16.6336 84.6686 18.2554C83.9628 19.5723 83.7691 20.4871 83.686 21.3049C83.6722 21.3742 83.7552 21.5822 83.9905 21.596C84.1842 21.6237 84.3088 21.4297 84.3088 21.3604C84.3918 20.5841 84.5717 19.7663 85.2222 18.5604C86.0387 17.0495 86.7584 16.495 87.5195 15.9128C88.3084 15.3029 89.111 14.6792 89.9967 13.0574C90.8686 11.4356 90.9517 10.4099 91.0347 9.42572C91.0624 9.10691 91.0901 8.80196 91.1316 8.46929C90.9932 8.16434 90.8409 7.85939 90.6749 7.5683C90.4811 8.24751 90.4396 8.81582 90.3981 9.37028C90.3289 10.3406 90.2597 11.2554 89.4432 12.7525Z" fill="#1A1A1A"/>
<path d="M89.8028 21.0416C89.443 21.7069 89.2216 22.2752 89.0693 22.7743C90.0658 21.6238 90.8546 20.3069 91.422 18.8931C90.8961 19.3782 90.3702 20.002 89.8028 21.0416Z" fill="#1A1A1A"/>
<path d="M68.8504 20.7782C68.6982 20.6257 68.5737 20.6257 68.4076 20.7366C68.3937 20.7505 68.3799 20.7505 68.3661 20.7644C68.2 20.903 68.0478 21.0139 67.8817 21.1525C67.854 21.1663 67.8402 21.1941 67.8125 21.2079C67.9232 21.3881 68.0478 21.5683 68.1585 21.7347C68.1862 21.7069 68.2277 21.6792 68.2554 21.6515C68.4491 21.499 68.6429 21.3465 68.8504 21.1802C69.0027 21.0277 68.9888 20.9168 68.8504 20.7782Z" fill="#1A1A1A"/>
</g>
<defs>
<clipPath id="clip0_3996_12446">
<rect width="93" height="28" fill="white"/>
</clipPath>
</defs>
</svg>
