<svg width="165" height="40" fill="none" xmlns="http://www.w3.org/2000/svg"><path d="M163.985 18.832c-.636-1.381-1.53-2.46-2.683-3.23-1.153-.77-2.5-1.157-4.045-1.157a7.33 7.33 0 00-2.196.328 6.068 6.068 0 00-1.913.984 5.429 5.429 0 00-1.426 1.644h-.035V7.503h-2.852v24.999h2.787v-2.683h.035a6.39 6.39 0 001.511 1.694c.581.447 1.217.78 1.913.999a7.218 7.218 0 002.181.328c1.545 0 2.892-.388 4.045-1.168 1.153-.775 2.047-1.858 2.683-3.24.636-1.381.954-2.976.954-4.79s-.318-3.423-.954-4.805l-.005-.005zm-2.604 8.452c-.447.984-1.063 1.73-1.843 2.232-.785.501-1.69.755-2.718.755-1.098 0-2.047-.274-2.852-.825-.805-.547-1.426-1.322-1.864-2.316-.437-.993-.656-2.156-.656-3.488 0-1.331.219-2.51.656-3.508.438-.994 1.059-1.769 1.864-2.315.805-.547 1.754-.82 2.852-.82 1.028 0 1.933.253 2.718.755.785.502 1.396 1.247 1.843 2.231.448.984.671 2.201.671 3.657s-.223 2.659-.671 3.642zm-18.747-11.711c-1.233-.795-2.669-1.193-4.314-1.193-1.644 0-3.065.398-4.303 1.193-1.237.795-2.196 1.888-2.887 3.29-.685 1.395-1.033 3-1.033 4.814s.343 3.394 1.033 4.78c.686 1.386 1.65 2.475 2.887 3.265 1.238.79 2.669 1.182 4.303 1.182 1.635 0 3.081-.392 4.314-1.182 1.232-.79 2.191-1.879 2.877-3.265.685-1.386 1.033-2.981 1.033-4.78 0-1.799-.343-3.419-1.033-4.815-.686-1.396-1.65-2.494-2.877-3.29zm.382 11.602c-.427 1.004-1.033 1.774-1.828 2.326-.795.546-1.749.82-2.868.82-1.118 0-2.077-.274-2.867-.82-.795-.547-1.406-1.322-1.828-2.316-.427-.994-.636-2.166-.636-3.508s.213-2.534.636-3.543c.427-1.009 1.038-1.789 1.838-2.34.8-.552 1.754-.83 2.862-.83 1.109 0 2.077.278 2.868.84.795.561 1.401 1.341 1.828 2.34.427.999.636 2.177.636 3.533 0 1.357-.214 2.5-.636 3.498h-.005zm-18.758-1.789c0 1.556-.397 2.738-1.197 3.548s-1.854 1.218-3.165 1.218c-1.312 0-2.366-.408-3.166-1.218-.8-.81-1.197-1.992-1.197-3.548v-1.341h-3.021v1.341c0 2.395.685 4.234 2.062 5.52 1.376 1.288 3.15 1.929 5.317 1.929 2.166 0 3.945-.641 5.316-1.928 1.377-1.287 2.063-3.126 2.063-5.52V7.497h-3.022v17.888h.01zm-17.326-10.161c-.984-.522-2.077-.78-3.275-.78-1.396 0-2.614.372-3.647 1.118-.591.427-1.108.998-1.55 1.704V7.503h-2.852v24.999h2.852v-10.37c0-1.198.208-2.167.63-2.912.418-.745.985-1.287 1.685-1.635.706-.348 1.486-.522 2.35-.522 1.332 0 2.366.388 3.096 1.168.731.775 1.098 1.933 1.098 3.463v10.808h2.852V21.496c0-1.576-.293-2.887-.879-3.926-.586-1.038-1.372-1.819-2.355-2.34l-.005-.005zm-23.985 2.569c.8-.552 1.754-.83 2.862-.83.66 0 1.247.09 1.764.268.516.18.964.428 1.351.746.388.318.7.695.95 1.133.248.437.417.919.521 1.44h2.887a7.055 7.055 0 00-.805-2.464 6.9 6.9 0 00-1.6-1.953 7.373 7.373 0 00-2.266-1.292c-.855-.308-1.789-.462-2.792-.462-1.635 0-3.066.398-4.303 1.193-1.238.795-2.197 1.888-2.887 3.29-.686 1.395-1.034 3-1.034 4.814s.343 3.394 1.034 4.78c.685 1.386 1.65 2.475 2.886 3.265 1.238.79 2.669 1.182 4.304 1.182.993 0 1.923-.159 2.777-.472a7.52 7.52 0 002.276-1.307 6.948 6.948 0 001.61-1.962c.412-.75.68-1.56.805-2.435H90.35a5.814 5.814 0 01-.571 1.466 4.314 4.314 0 01-.914 1.143 3.74 3.74 0 01-1.302.73c-.502.169-1.084.253-1.744.253-1.118 0-2.077-.273-2.867-.82-.796-.546-1.407-1.321-1.829-2.315-.427-.994-.636-2.166-.636-3.508s.214-2.534.636-3.543c.427-1.009 1.038-1.789 1.838-2.34h-.014zm-9.546-.83a7.14 7.14 0 00-2.544-1.913c-.989-.447-2.102-.67-3.33-.67-1.564 0-2.95.397-4.158 1.197-1.208.8-2.152 1.898-2.837 3.299-.681 1.396-1.024 2.996-1.024 4.8 0 1.804.323 3.364.974 4.755.65 1.392 1.585 2.485 2.812 3.28 1.228.795 2.704 1.192 4.438 1.192 1.287 0 2.46-.238 3.513-.72a7.24 7.24 0 002.643-2.008A6.617 6.617 0 0075.28 27.2h-2.852a4.136 4.136 0 01-.9 1.63c-.416.472-.948.835-1.584 1.098-.636.263-1.377.392-2.216.392-1.153 0-2.132-.263-2.937-.794-.805-.532-1.416-1.268-1.839-2.207-.372-.84-.57-1.793-.61-2.852h13.237v-.79c0-1.376-.19-2.633-.562-3.766-.373-1.133-.914-2.117-1.62-2.947h.005zm-10.43 2.758c.433-.89 1.034-1.575 1.814-2.062.775-.487 1.69-.73 2.743-.73s1.987.243 2.768.73c.785.487 1.39 1.172 1.818 2.062.323.67.527 1.436.606 2.29H62.36c.08-.854.284-1.62.606-2.29h.005z" fill="#7E3CFC"/><path d="M63.647 7.498h-19.3v2.688h8.16v22.316h3.016V10.186h8.124V7.498zm-33.644 7.503H15V40h15.002V15.001zM15.001 0H0v15.001h15.001V0z" fill="#7E3CFC"/></svg>
