<?xml version="1.0" encoding="utf-8"?>
<!-- Generator: Adobe Illustrator 27.3.1, SVG Export Plug-In . SVG Version: 6.00 Build 0)  -->
<svg version="1.1" id="Layer_1" xmlns="http://www.w3.org/2000/svg" xmlns:xlink="http://www.w3.org/1999/xlink" x="0px" y="0px"
	 viewBox="0 0 497 75" style="enable-background:new 0 0 497 75;" xml:space="preserve">
<g>
	<path d="M30.3,22.8l7.5,20h-4.6l-1.5-4.5h-7.5l-1.6,4.5h-4.4l7.6-20H30.3z M30.6,35.1l-2.5-7.3H28l-2.6,7.3H30.6z"/>
	<path d="M43.9,22.8v20h-4.4v-20H43.9z"/>
	<path d="M56.8,22.8c1.2,0,2.3,0.2,3.2,0.5c0.9,0.4,1.6,0.8,2.1,1.4c0.6,0.6,1,1.3,1.2,2c0.3,0.8,0.4,1.6,0.4,2.4s-0.1,1.6-0.4,2.4
		c-0.3,0.8-0.7,1.5-1.2,2.1c-0.6,0.6-1.3,1.1-2.1,1.4c-0.9,0.4-1.9,0.5-3.2,0.5h-4.6v7.2h-4.4v-20L56.8,22.8L56.8,22.8z M55.6,32.2
		c0.5,0,1,0,1.5-0.1s0.9-0.2,1.2-0.4c0.4-0.2,0.6-0.5,0.9-0.9c0.2-0.4,0.3-0.9,0.3-1.5s-0.1-1.1-0.3-1.5s-0.5-0.7-0.9-0.9
		c-0.4-0.2-0.8-0.4-1.2-0.4c-0.5-0.1-1-0.1-1.5-0.1h-3.4v6h3.4V32.2z"/>
	<path d="M84.2,22.8l7.5,20h-4.6l-1.5-4.5h-7.5l-1.6,4.5h-4.4l7.6-20H84.2z M84.5,35.1L82,27.8h-0.1l-2.6,7.3H84.5z"/>
	<path d="M103.3,41c-0.5,0.8-1.1,1.3-1.8,1.7c-0.8,0.3-1.6,0.5-2.6,0.5c-1.1,0-2-0.2-2.9-0.6c-0.8-0.4-1.5-1-2-1.7s-0.9-1.5-1.2-2.5
		c-0.3-0.9-0.4-1.9-0.4-2.9s0.1-1.9,0.4-2.8c0.3-0.9,0.7-1.7,1.2-2.4c0.5-0.7,1.2-1.2,2-1.7c0.8-0.4,1.7-0.6,2.8-0.6
		c0.9,0,1.7,0.2,2.4,0.5c0.8,0.4,1.4,0.9,1.8,1.6h0.1v-7.3h4v20h-3.8V41L103.3,41z M103.1,33.8c-0.1-0.6-0.3-1-0.6-1.5s-0.6-0.8-1-1
		c-0.4-0.3-1-0.4-1.6-0.4c-0.7,0-1.2,0.1-1.7,0.4c-0.4,0.3-0.8,0.6-1.1,1c-0.3,0.4-0.5,0.9-0.6,1.5s-0.2,1.1-0.2,1.7
		c0,0.6,0.1,1.1,0.2,1.7c0.1,0.6,0.3,1.1,0.6,1.5c0.3,0.4,0.7,0.8,1.1,1.1s1,0.4,1.6,0.4c0.7,0,1.2-0.1,1.6-0.4
		c0.4-0.3,0.8-0.6,1.1-1c0.3-0.4,0.4-0.9,0.6-1.5c0.1-0.6,0.2-1.1,0.2-1.7S103.2,34.4,103.1,33.8z"/>
	<path d="M113.7,42.8l-5-14.5h4.2l3.1,9.9h0.1l3.1-9.9h3.9l-4.9,14.5C118.2,42.8,113.7,42.8,113.7,42.8z"/>
	<path d="M124.5,32.8c0.1-0.9,0.3-1.7,0.7-2.3c0.4-0.6,0.9-1.1,1.6-1.5c0.6-0.4,1.3-0.6,2.1-0.8s1.6-0.2,2.4-0.2
		c0.7,0,1.5,0.1,2.2,0.2s1.4,0.3,2,0.6c0.6,0.3,1.1,0.7,1.5,1.2s0.6,1.2,0.6,2.1v7.5c0,0.7,0,1.3,0.1,1.9s0.2,1,0.4,1.3h-4
		c-0.1-0.2-0.1-0.5-0.2-0.7s-0.1-0.5-0.1-0.7c-0.6,0.7-1.4,1.1-2.2,1.4c-0.9,0.3-1.7,0.4-2.6,0.4c-0.7,0-1.3-0.1-1.9-0.3
		s-1.1-0.4-1.6-0.8c-0.4-0.4-0.8-0.8-1.1-1.3c-0.3-0.5-0.4-1.2-0.4-1.9c0-0.8,0.1-1.5,0.4-2s0.7-1,1.1-1.3c0.5-0.3,1-0.6,1.6-0.7
		s1.2-0.3,1.8-0.4c0.6-0.1,1.2-0.2,1.8-0.2c0.6-0.1,1.1-0.1,1.5-0.3c0.4-0.1,0.8-0.3,1.1-0.5c0.3-0.2,0.4-0.5,0.4-0.9
		s-0.1-0.8-0.2-1c-0.1-0.3-0.3-0.4-0.6-0.6c-0.2-0.1-0.5-0.2-0.8-0.3c-0.3,0-0.6-0.1-1-0.1c-0.8,0-1.4,0.2-1.8,0.5s-0.7,0.9-0.8,1.7
		C128.5,32.8,124.5,32.8,124.5,32.8z M133.7,35.7c-0.2,0.1-0.4,0.3-0.6,0.4s-0.5,0.2-0.8,0.2c-0.3,0.1-0.6,0.1-0.9,0.1
		s-0.6,0.1-1,0.1c-0.3,0.1-0.6,0.1-0.9,0.2c-0.3,0.1-0.5,0.2-0.8,0.4c-0.2,0.2-0.4,0.4-0.5,0.6c-0.1,0.2-0.2,0.6-0.2,0.9
		c0,0.4,0.1,0.7,0.2,0.9s0.3,0.4,0.5,0.6c0.2,0.1,0.5,0.2,0.8,0.3s0.6,0.1,0.9,0.1c0.8,0,1.4-0.1,1.8-0.4c0.4-0.3,0.7-0.6,1-0.9
		c0.2-0.4,0.3-0.7,0.4-1.1c0-0.4,0.1-0.7,0.1-0.9V35.7z"/>
	<path d="M144.5,28.3v2h0.1c0.5-0.8,1.2-1.5,2-1.8c0.8-0.4,1.6-0.6,2.5-0.6c1.1,0,1.9,0.1,2.6,0.4s1.2,0.7,1.6,1.2s0.7,1.1,0.8,1.9
		c0.2,0.7,0.2,1.6,0.2,2.5v8.9h-4v-8.2c0-1.2-0.2-2.1-0.6-2.7s-1-0.9-2-0.9c-1.1,0-1.9,0.3-2.4,1c-0.5,0.7-0.7,1.7-0.7,3.2v7.6h-4
		V28.3H144.5z"/>
	<path d="M164.3,30.9c-0.6,0-1.2,0.1-1.6,0.4s-0.8,0.7-1,1.1c-0.3,0.5-0.5,1-0.6,1.5c-0.1,0.6-0.2,1.1-0.2,1.6s0.1,1.1,0.2,1.6
		s0.3,1,0.5,1.5c0.3,0.4,0.6,0.8,1,1.1s1,0.4,1.6,0.4c1,0,1.7-0.3,2.2-0.8s0.8-1.2,1-2.1h3.8c-0.3,1.9-1,3.4-2.2,4.4
		s-2.8,1.5-4.7,1.5c-1.1,0-2.1-0.2-3-0.5c-0.9-0.4-1.7-0.9-2.3-1.5s-1.1-1.4-1.5-2.3c-0.4-0.9-0.5-1.9-0.5-3s0.2-2.2,0.5-3.1
		c0.3-1,0.8-1.8,1.4-2.5s1.4-1.2,2.3-1.6s2-0.6,3.1-0.6c0.9,0,1.7,0.1,2.5,0.3c0.8,0.2,1.5,0.6,2.1,1c0.6,0.5,1.1,1,1.5,1.7
		s0.6,1.5,0.7,2.4h-3.9C167,31.8,166,30.9,164.3,30.9z"/>
	<path d="M177.7,39.3c0.6,0.6,1.5,0.9,2.6,0.9c0.8,0,1.5-0.2,2.1-0.6c0.6-0.4,0.9-0.8,1.1-1.3h3.5c-0.6,1.7-1.4,3-2.6,3.7
		s-2.6,1.1-4.2,1.1c-1.1,0-2.2-0.2-3.1-0.5c-0.9-0.4-1.7-0.9-2.3-1.6s-1.1-1.5-1.5-2.4c-0.3-0.9-0.5-2-0.5-3.1s0.2-2.1,0.5-3
		c0.4-0.9,0.9-1.7,1.5-2.4c0.7-0.7,1.4-1.2,2.3-1.6s1.9-0.6,3-0.6c1.2,0,2.3,0.2,3.2,0.7c0.9,0.5,1.7,1.1,2.3,1.9s1,1.7,1.3,2.7
		s0.4,2.1,0.3,3.2h-10.4C176.8,37.8,177.1,38.8,177.7,39.3z M182.2,31.7c-0.5-0.5-1.2-0.8-2.2-0.8c-0.6,0-1.2,0.1-1.6,0.3
		c-0.4,0.2-0.8,0.5-1,0.8s-0.4,0.7-0.5,1c-0.1,0.4-0.2,0.7-0.2,1h6.5C183,33,182.7,32.3,182.2,31.7z"/>
	<path d="M192.9,39.2c0.2,0.3,0.4,0.6,0.7,0.8c0.3,0.2,0.6,0.3,1,0.4c0.4,0.1,0.7,0.1,1.1,0.1c0.3,0,0.6,0,0.9-0.1s0.6-0.2,0.8-0.3
		c0.3-0.1,0.5-0.3,0.6-0.6c0.2-0.2,0.3-0.5,0.3-0.9c0-0.6-0.4-1-1.2-1.3c-0.8-0.3-1.9-0.6-3.3-0.9c-0.6-0.1-1.1-0.3-1.7-0.5
		s-1-0.4-1.5-0.7c-0.4-0.3-0.8-0.7-1-1.1c-0.3-0.4-0.4-1-0.4-1.6c0-0.9,0.2-1.7,0.5-2.3c0.4-0.6,0.8-1.1,1.4-1.4s1.3-0.6,2-0.7
		s1.5-0.2,2.3-0.2s1.5,0.1,2.3,0.2c0.7,0.1,1.4,0.4,2,0.8s1.1,0.8,1.4,1.4c0.4,0.6,0.6,1.3,0.7,2.2H198c-0.1-0.8-0.3-1.3-0.9-1.6
		s-1.1-0.4-1.8-0.4c-0.2,0-0.5,0-0.7,0c-0.3,0-0.5,0.1-0.7,0.2s-0.4,0.2-0.5,0.4c-0.1,0.2-0.2,0.4-0.2,0.7c0,0.4,0.1,0.6,0.4,0.9
		s0.6,0.4,1,0.5s0.9,0.3,1.4,0.4c0.5,0.1,1.1,0.2,1.7,0.4c0.6,0.1,1.1,0.3,1.7,0.5c0.5,0.2,1,0.4,1.5,0.7c0.4,0.3,0.8,0.7,1,1.1
		c0.3,0.5,0.4,1,0.4,1.7c0,1-0.2,1.7-0.6,2.4c-0.4,0.6-0.9,1.2-1.5,1.6c-0.6,0.4-1.3,0.7-2.1,0.8c-0.8,0.2-1.6,0.2-2.4,0.2
		s-1.7-0.1-2.5-0.3s-1.5-0.4-2.1-0.8c-0.6-0.4-1.1-0.9-1.5-1.6c-0.4-0.6-0.6-1.5-0.7-2.4h3.8C192.6,38.5,192.7,38.9,192.9,39.2z"/>
</g>
</svg>
