<?xml version="1.0" encoding="utf-8"?>
<!-- Generator: Adobe Illustrator 27.1.1, SVG Export Plug-In . SVG Version: 6.00 Build 0)  -->
<svg version="1.1" id="Layer_1" xmlns="http://www.w3.org/2000/svg" xmlns:xlink="http://www.w3.org/1999/xlink" x="0px" y="0px"
	 viewBox="0 0 181.6 48.1" style="enable-background:new 0 0 181.6 48.1;" xml:space="preserve">
<style type="text/css">
	.st0{fill:#FFFFFF;}
</style>
<g id="AIPP">
	<g>
		<path class="st0" d="M93.4,10.8v-5h3.4c2.1,0,3.2,0.9,3.2,2.5s-1.1,2.5-3.2,2.5H93.4z M93.4,13.9H97c4,0,6.5-1.9,6.5-5.5
			S101,2.9,97,2.9h-7.2v17.5h3.6V13.9z M86.8,2.8h-3.6v17.5h3.6V2.8z M72.8,6.8l2.5,6.7h-5L72.8,6.8z M70.8,2.8l-6.5,17.5h3.6
			l1.4-3.8h7.2l1.4,3.8h3.6L74.9,2.8C74.9,2.8,70.8,2.8,70.8,2.8z"/>
	</g>
	<g>
		<polygon class="st0" points="46.7,25.2 12,39.6 49.9,30.6 		"/>
		<polygon class="st0" points="13.8,36.9 43.5,19.7 40.5,14.5 		"/>
		<polygon class="st0" points="33.6,2.8 15.4,33.6 37,8.7 		"/>
		<polygon class="st0" points="10.8,41.5 10.8,41.5 56.3,41.5 52.9,36 		"/>
	</g>
	<g>
		<path class="st0" d="M67.8,41.5h-3.6V24h7.2c4,0,6.5,1.9,6.5,5.5S75.4,35,71.4,35h-3.6V41.5z M71.2,32c2.1,0,3.2-0.9,3.2-2.5
			S73.3,27,71.2,27h-3.4v5H71.2z"/>
		<path class="st0" d="M90.7,41.5h-3.4v-1.3c-0.7,0.8-1.8,1.6-3.5,1.6c-2.7,0-4.4-1.8-4.4-4.6v-8.5h3.4v7.7c0,1.4,0.6,2.3,2,2.3
			c1.2,0,2.4-0.9,2.4-2.5v-7.5h3.4L90.7,41.5L90.7,41.5z"/>
		<path class="st0" d="M96.9,40.2v1.3h-3.4V24h3.4v6c0.8-0.9,2-1.6,3.6-1.6c3.5,0,5.6,3,5.6,6.7s-2,6.7-5.6,6.7
			C98.9,41.7,97.7,41.1,96.9,40.2z M96.9,35.4c0,2.2,1.2,3.4,2.9,3.4c1.9,0,3-1.5,3-3.8c0-2.2-1-3.7-3-3.7c-1.6,0-2.9,1.2-2.9,3.4
			V35.4z"/>
		<path class="st0" d="M111.6,41.5h-3.4V24h3.4V41.5z"/>
		<path class="st0" d="M114.3,24h3.5v3.2h-3.5V24z M117.8,41.5h-3.4V28.6h3.4V41.5z"/>
		<path class="st0" d="M121.5,37.1c0.9,1.2,2.4,2,3.9,2c1.1,0,2.1-0.4,2.1-1.3c0-1-1-1.1-3-1.5c-2.1-0.4-4.4-1-4.4-3.7
			c0-2.5,2.2-4.2,5.2-4.2c2.3,0,4.3,0.9,5.3,2.2l-2,2.1c-0.9-1.1-2.1-1.7-3.4-1.7c-1.1,0-1.8,0.5-1.8,1.2c0,0.8,0.9,1,2.4,1.3
			c2.2,0.5,4.9,1,4.9,3.9c0,2.7-2.5,4.3-5.6,4.3c-2.3,0-4.8-0.9-5.9-2.4L121.5,37.1z"/>
		<path class="st0" d="M132.8,24h3.4v6c0.7-0.8,1.9-1.6,3.5-1.6c2.7,0,4.3,1.8,4.3,4.6v8.5h-3.4V34c0-1.4-0.6-2.5-2-2.5
			c-1.2,0-2.4,0.9-2.4,2.5v7.4h-3.4L132.8,24L132.8,24z"/>
		<path class="st0" d="M146.8,24h3.5v3.2h-3.5V24z M150.2,41.5h-3.4V28.6h3.4V41.5z"/>
		<path class="st0" d="M153,28.6h3.4V30c0.7-0.8,1.9-1.6,3.5-1.6c2.7,0,4.3,1.8,4.3,4.6v8.5h-3.4V34c0-1.4-0.6-2.5-2-2.5
			c-1.2,0-2.4,0.9-2.4,2.5v7.4H153V28.6z"/>
		<path class="st0" d="M172.4,46.1c-3.1,0-5.2-1.3-6-3.8l3.2-0.9c0.4,1.3,1.4,2,2.8,2c1.8,0,3-0.9,3-3v-0.9c-0.7,0.9-2,1.6-3.6,1.6
			c-3.5,0-5.6-2.9-5.6-6.4s2-6.3,5.6-6.3c1.6,0,2.9,0.7,3.6,1.6v-1.3h3.4v11.4C178.8,43.9,176.2,46.1,172.4,46.1z M172.7,31.3
			c-1.9,0-2.9,1.3-2.9,3.5c0,2.1,1,3.5,2.9,3.5c1.6,0,2.8-1.2,2.8-3.3v-0.3C175.4,32.5,174.3,31.3,172.7,31.3z"/>
	</g>
</g>
</svg>
