<?xml version="1.0" encoding="UTF-8"?>
<svg xmlns="http://www.w3.org/2000/svg" version="1.1" xmlns:xlink="http://www.w3.org/1999/xlink" viewBox="0 0 738 322">
  <defs>
    <linearGradient id="linear-gradient" x1="46.69" y1="1021.75" x2="741.19" y2="689.75" gradientTransform="translate(0 1002) scale(1 -1)" gradientUnits="userSpaceOnUse">
      <stop offset="0" stop-color="#f3f6fc"/>
      <stop offset="1" stop-color="#fff"/>
    </linearGradient>
    <linearGradient id="linear-gradient-2" x1="233" y1="776.25" x2="699" y2="776.25" gradientTransform="translate(0 1002) scale(1 -1)" gradientUnits="userSpaceOnUse">
      <stop offset="0" stop-color="#305bbc"/>
      <stop offset="1" stop-color="#5b84df"/>
    </linearGradient>
    <linearGradient id="linear-gradient-3" x1="423.25" y1="833.25" x2="423.25" y2="675.75" gradientTransform="translate(0 1002) scale(1 -1)" gradientUnits="userSpaceOnUse">
      <stop offset="0" stop-color="#2149a3"/>
      <stop offset="1" stop-color="#2149a3" stop-opacity="0"/>
    </linearGradient>
    <linearGradient id="linear-gradient-4" x1="172.44" y1="843.33" x2="699" y2="843.33" gradientTransform="translate(0 1002) scale(1 -1)" gradientUnits="userSpaceOnUse">
      <stop offset="0" stop-color="#7abd49"/>
      <stop offset=".2" stop-color="#7abd49"/>
      <stop offset="1" stop-color="#a4df79"/>
    </linearGradient>
    <linearGradient id="linear-gradient-5" x1="104.98" y1="938.56" x2="251.48" y2="749.56" gradientTransform="translate(0 1002) scale(1 -1)" gradientUnits="userSpaceOnUse">
      <stop offset="0" stop-color="#fff"/>
      <stop offset=".61" stop-color="#ccecb5"/>
      <stop offset="1" stop-color="#fff"/>
    </linearGradient>
    <linearGradient id="linear-gradient-6" x1="109.85" y1="808.01" x2="314.75" y2="916.53" gradientTransform="translate(0 1002) scale(1 -1)" gradientUnits="userSpaceOnUse">
      <stop offset="0" stop-color="#7abd49"/>
      <stop offset="1" stop-color="#7abd49" stop-opacity="0"/>
    </linearGradient>
    <linearGradient id="linear-gradient-7" x1="119.47" y1="917.61" x2="201.97" y2="813.61" gradientTransform="translate(0 1002) scale(1 -1)" gradientUnits="userSpaceOnUse">
      <stop offset="0" stop-color="#5fa22e"/>
      <stop offset="1" stop-color="#9bd76f"/>
    </linearGradient>
    <linearGradient id="linear-gradient-8" x1="43.87" y1="938.15" x2="180.58" y2="828.68" gradientTransform="translate(0 1002) scale(1 -1)" gradientUnits="userSpaceOnUse">
      <stop offset="0" stop-color="#fff"/>
      <stop offset="1" stop-color="#fff" stop-opacity=".67"/>
    </linearGradient>
  </defs>
  <!-- Generator: Adobe Illustrator 28.7.1, SVG Export Plug-In . SVG Version: 1.2.0 Build 142)  -->
  <g>
    <g id="Layer_1">
      <path d="M375,310.75v1.5q0-1.5,0-1.5h-228c-5.31,0-11.84-1.64-19.1-4.6-7.24-2.95-15.12-7.17-23.11-12.23-15.96-10.11-32.26-23.51-44.66-36.66-13.97-17.47-26.36-34.03-35.27-53.68-8.91-19.64-14.37-42.43-14.37-72.33V60.24c0-27.89,22.61-50.49,50.5-50.49h643c12.98,0,23.5,10.52,23.5,23.5v254c0,12.98-10.52,23.5-23.5,23.5h-329Z" fill="url(#linear-gradient)" stroke="#e0e3eb" stroke-width="3"/>
      <path d="M139,185.25c0-8.84,7.16-16,16-16h544v97c0,8.84-7.16,16-16,16H155c-8.84,0-16-7.16-16-16v-81Z" fill="url(#linear-gradient-2)"/>
      <path d="M270.74,201.3c-9.45,41.36-33.81,66.65-45.24,80.45h-78.5l102-113h450.5l-1,1-408.73,14.91c-9.36.34-16.95,7.51-19.04,16.65Z" fill="url(#linear-gradient-3)"/>
      <g>
        <rect x="276.78" y="193.52" width="377.83" height="88.23" fill="none"/>
        <path d="M314.55,208.92v-13.93h3.5v13.79c0,5.43,2.49,7.88,6.9,7.88s6.93-2.45,6.93-7.88v-13.79h3.4v13.93c0,7.11-3.89,10.85-10.36,10.85s-10.36-3.75-10.36-10.85Z" fill="#fff"/>
        <path d="M350.43,208.6l-4.48,4.55v6.34h-3.5v-24.5h3.5v13.69l13.3-13.69h3.99l-10.47,11.03,11.13,13.48h-4.1l-9.38-10.89Z" fill="#fff"/>
        <path d="M377.02,194.98h10.33c7.88,0,13.23,4.97,13.23,12.25s-5.36,12.25-13.23,12.25h-10.33v-24.5ZM387.14,216.44c6.06,0,9.94-3.71,9.94-9.21s-3.89-9.21-9.94-9.21h-6.62v18.41h6.62Z" fill="#fff"/>
        <path d="M420.15,208.29v11.2h-3.19v-2.45c-1.12,1.68-3.18,2.66-6.09,2.66-4.2,0-6.86-2.24-6.86-5.46,0-2.97,1.93-5.42,7.46-5.42h5.32v-.67c0-2.84-1.65-4.48-4.97-4.48-2.21,0-4.45.77-5.88,2l-1.4-2.52c1.92-1.54,4.69-2.38,7.67-2.38,5.08,0,7.95,2.45,7.95,7.53ZM416.78,213.82v-2.59h-5.18c-3.33,0-4.27,1.29-4.27,2.87,0,1.86,1.54,3.01,4.1,3.01s4.52-1.16,5.36-3.29Z" fill="#fff"/>
        <path d="M436.8,218.4c-1.01.88-2.55,1.29-4.06,1.29-3.75,0-5.88-2.07-5.88-5.81v-10.19h-3.15v-2.76h3.15v-4.06h3.36v4.06h5.32v2.76h-5.32v10.05c0,2,1.05,3.12,2.91,3.12.98,0,1.92-.32,2.62-.88l1.05,2.42Z" fill="#fff"/>
        <path d="M455.56,208.29v11.2h-3.19v-2.45c-1.12,1.68-3.18,2.66-6.09,2.66-4.2,0-6.86-2.24-6.86-5.46,0-2.97,1.93-5.42,7.46-5.42h5.32v-.67c0-2.84-1.64-4.48-4.97-4.48-2.21,0-4.45.77-5.88,2l-1.4-2.52c1.92-1.54,4.69-2.38,7.67-2.38,5.08,0,7.95,2.45,7.95,7.53ZM452.2,213.82v-2.59h-5.18c-3.33,0-4.27,1.29-4.27,2.87,0,1.86,1.54,3.01,4.1,3.01s4.52-1.16,5.36-3.29Z" fill="#fff"/>
        <path d="M491.47,203.53c0,5.32-3.85,8.54-10.22,8.54h-6.06v7.42h-3.5v-24.5h9.56c6.37,0,10.22,3.22,10.22,8.54ZM487.97,203.53c0-3.5-2.35-5.5-6.83-5.5h-5.95v10.99h5.95c4.48,0,6.83-2,6.83-5.5Z" fill="#fff"/>
        <path d="M505.79,200.76v3.25c-.28-.04-.52-.04-.77-.04-3.61,0-5.85,2.21-5.85,6.27v9.24h-3.36v-18.55h3.22v3.12c1.19-2.17,3.5-3.29,6.76-3.29Z" fill="#fff"/>
        <path d="M508.03,210.21c0-5.53,4.1-9.45,9.66-9.45s9.63,3.92,9.63,9.45-4.06,9.49-9.63,9.49-9.66-3.96-9.66-9.49ZM523.92,210.21c0-3.96-2.66-6.51-6.23-6.51s-6.27,2.56-6.27,6.51,2.7,6.55,6.27,6.55,6.23-2.59,6.23-6.55Z" fill="#fff"/>
        <path d="M542.4,218.4c-1.01.88-2.55,1.29-4.06,1.29-3.75,0-5.88-2.07-5.88-5.81v-10.19h-3.15v-2.76h3.15v-4.06h3.36v4.06h5.32v2.76h-5.32v10.05c0,2,1.05,3.12,2.91,3.12.98,0,1.92-.32,2.62-.88l1.05,2.42Z" fill="#fff"/>
        <path d="M562.52,211.33h-15.05c.42,3.26,3.05,5.43,6.72,5.43,2.17,0,3.99-.74,5.36-2.24l1.85,2.17c-1.68,1.96-4.24,3.01-7.32,3.01-5.99,0-9.98-3.96-9.98-9.49s3.96-9.45,9.31-9.45,9.17,3.85,9.17,9.56c0,.28-.04.7-.07,1.01ZM547.47,208.92h11.9c-.35-3.12-2.7-5.32-5.95-5.32s-5.6,2.17-5.95,5.32Z" fill="#fff"/>
        <path d="M565.53,210.21c0-5.53,4.1-9.45,9.8-9.45,3.33,0,6.09,1.37,7.56,3.96l-2.56,1.65c-1.19-1.82-3.01-2.66-5.04-2.66-3.64,0-6.37,2.56-6.37,6.51s2.73,6.55,6.37,6.55c2.03,0,3.85-.84,5.04-2.66l2.56,1.61c-1.47,2.59-4.24,3.99-7.56,3.99-5.71,0-9.8-3.96-9.8-9.49Z" fill="#fff"/>
        <path d="M597.91,218.4c-1.01.88-2.55,1.29-4.06,1.29-3.75,0-5.88-2.07-5.88-5.81v-10.19h-3.15v-2.76h3.15v-4.06h3.36v4.06h5.32v2.76h-5.32v10.05c0,2,1.05,3.12,2.91,3.12.98,0,1.92-.32,2.62-.88l1.05,2.42Z" fill="#fff"/>
        <path d="M601.37,195.19c0-1.22.98-2.21,2.28-2.21s2.28.95,2.28,2.14c0,1.26-.95,2.24-2.28,2.24s-2.28-.95-2.28-2.17ZM601.96,200.94h3.36v18.55h-3.36v-18.55Z" fill="#fff"/>
        <path d="M610.01,210.21c0-5.53,4.1-9.45,9.66-9.45s9.63,3.92,9.63,9.45-4.06,9.49-9.63,9.49-9.66-3.96-9.66-9.49ZM625.91,210.21c0-3.96-2.66-6.51-6.23-6.51s-6.27,2.56-6.27,6.51,2.7,6.55,6.27,6.55,6.23-2.59,6.23-6.55Z" fill="#fff"/>
        <path d="M651.56,208.81v10.68h-3.36v-10.29c0-3.64-1.82-5.43-5-5.43-3.57,0-5.88,2.14-5.88,6.16v9.56h-3.36v-18.55h3.22v2.8c1.37-1.89,3.75-2.97,6.69-2.97,4.51,0,7.7,2.59,7.7,8.05Z" fill="#fff"/>
        <path d="M405.65,259.49l-5.29-7.53c-.49.03-1.01.07-1.54.07h-6.06v7.46h-3.5v-24.5h9.56c6.37,0,10.22,3.22,10.22,8.54,0,3.78-1.96,6.51-5.39,7.74l5.81,8.23h-3.82ZM405.55,243.53c0-3.5-2.35-5.5-6.83-5.5h-5.95v11.03h5.95c4.48,0,6.83-2.03,6.83-5.53Z" fill="#fff"/>
        <path d="M430.92,251.33h-15.05c.42,3.26,3.05,5.43,6.72,5.43,2.17,0,3.99-.74,5.36-2.24l1.85,2.17c-1.68,1.96-4.24,3.01-7.32,3.01-5.99,0-9.98-3.96-9.98-9.49s3.96-9.45,9.31-9.45,9.17,3.85,9.17,9.56c0,.28-.04.7-.07,1.01ZM415.87,248.92h11.9c-.35-3.12-2.7-5.32-5.95-5.32s-5.6,2.17-5.95,5.32Z" fill="#fff"/>
        <path d="M454.86,250.21c0,5.71-3.96,9.49-9.38,9.49-2.62,0-4.94-1.01-6.48-3.01v9.59h-3.36v-25.34h3.22v2.94c1.51-2.07,3.89-3.12,6.62-3.12,5.43,0,9.38,3.78,9.38,9.45ZM451.47,250.21c0-3.92-2.7-6.51-6.27-6.51s-6.23,2.59-6.23,6.51,2.7,6.55,6.23,6.55,6.27-2.59,6.27-6.55Z" fill="#fff"/>
        <path d="M469.49,240.76v3.25c-.28-.04-.52-.04-.77-.04-3.61,0-5.85,2.21-5.85,6.27v9.24h-3.36v-18.55h3.22v3.12c1.19-2.17,3.5-3.29,6.76-3.29Z" fill="#fff"/>
        <path d="M490.14,251.33h-15.05c.42,3.26,3.05,5.43,6.72,5.43,2.17,0,3.99-.74,5.36-2.24l1.85,2.17c-1.68,1.96-4.24,3.01-7.32,3.01-5.99,0-9.98-3.96-9.98-9.49s3.96-9.45,9.31-9.45,9.17,3.85,9.17,9.56c0,.28-.04.7-.07,1.01ZM475.09,248.92h11.9c-.35-3.12-2.7-5.32-5.95-5.32s-5.6,2.17-5.95,5.32Z" fill="#fff"/>
        <path d="M492.52,257.53l1.4-2.66c1.58,1.12,4.1,1.92,6.51,1.92,3.11,0,4.41-.95,4.41-2.52,0-4.17-11.73-.56-11.73-7.95,0-3.33,2.97-5.57,7.74-5.57,2.41,0,5.15.63,6.76,1.68l-1.44,2.66c-1.68-1.08-3.54-1.47-5.35-1.47-2.94,0-4.38,1.08-4.38,2.55,0,4.38,11.76.81,11.76,8.02,0,3.36-3.08,5.5-8.02,5.5-3.08,0-6.13-.95-7.67-2.17Z" fill="#fff"/>
        <path d="M529.1,251.33h-15.05c.42,3.26,3.05,5.43,6.72,5.43,2.17,0,3.99-.74,5.36-2.24l1.85,2.17c-1.68,1.96-4.24,3.01-7.32,3.01-5.99,0-9.98-3.96-9.98-9.49s3.96-9.45,9.31-9.45,9.17,3.85,9.17,9.56c0,.28-.04.7-.07,1.01ZM514.05,248.92h11.9c-.35-3.12-2.7-5.32-5.95-5.32s-5.6,2.17-5.95,5.32Z" fill="#fff"/>
        <path d="M551.43,248.81v10.68h-3.36v-10.29c0-3.64-1.82-5.43-5-5.43-3.57,0-5.88,2.14-5.88,6.16v9.56h-3.36v-18.55h3.22v2.8c1.37-1.89,3.75-2.97,6.69-2.97,4.51,0,7.7,2.59,7.7,8.05Z" fill="#fff"/>
        <path d="M568.09,258.4c-1.01.88-2.55,1.29-4.06,1.29-3.75,0-5.88-2.07-5.88-5.81v-10.19h-3.15v-2.76h3.15v-4.06h3.36v4.06h5.32v2.76h-5.32v10.05c0,2,1.05,3.12,2.91,3.12.98,0,1.92-.32,2.62-.88l1.05,2.42Z" fill="#fff"/>
        <path d="M586.85,248.29v11.2h-3.19v-2.45c-1.12,1.68-3.18,2.66-6.09,2.66-4.2,0-6.86-2.24-6.86-5.46,0-2.97,1.93-5.42,7.46-5.42h5.32v-.67c0-2.84-1.65-4.48-4.97-4.48-2.21,0-4.45.77-5.88,2l-1.4-2.52c1.92-1.54,4.69-2.38,7.67-2.38,5.08,0,7.95,2.45,7.95,7.53ZM583.49,253.82v-2.59h-5.18c-3.33,0-4.27,1.29-4.27,2.87,0,1.86,1.54,3.01,4.1,3.01s4.52-1.16,5.36-3.29Z" fill="#fff"/>
        <path d="M603.51,258.4c-1.01.88-2.55,1.29-4.06,1.29-3.75,0-5.88-2.07-5.88-5.81v-10.19h-3.15v-2.76h3.15v-4.06h3.36v4.06h5.32v2.76h-5.32v10.05c0,2,1.05,3.12,2.91,3.12.98,0,1.92-.32,2.62-.88l1.05,2.42Z" fill="#fff"/>
        <path d="M606.97,235.19c0-1.22.98-2.21,2.28-2.21s2.28.95,2.28,2.14c0,1.26-.95,2.24-2.28,2.24s-2.28-.95-2.28-2.17ZM607.57,240.94h3.36v18.55h-3.36v-18.55Z" fill="#fff"/>
        <path d="M633.75,240.94l-8.12,18.55h-3.43l-8.12-18.55h3.5l6.37,14.88,6.51-14.88h3.29Z" fill="#fff"/>
        <path d="M653.07,251.33h-15.05c.42,3.26,3.05,5.43,6.72,5.43,2.17,0,3.99-.74,5.36-2.24l1.85,2.17c-1.68,1.96-4.24,3.01-7.32,3.01-5.99,0-9.98-3.96-9.98-9.49s3.96-9.45,9.31-9.45,9.17,3.85,9.17,9.56c0,.28-.04.7-.07,1.01ZM638.01,248.92h11.9c-.35-3.12-2.7-5.32-5.95-5.32s-5.6,2.17-5.95,5.32Z" fill="#fff"/>
      </g>
      <path d="M68,34.25c-18.78,0-34,15.22-34,34v58.55c0,67.56,40.78,128.45,103.26,154.17,6.88,2.83,14.6,2.83,21.49,0,43.99-18.11,77.23-53.65,93.04-96.69,3.13-8.51,10.94-14.66,20.01-14.66h427.2V50.25c0-8.84-7.16-16-16-16H68Z" fill="url(#linear-gradient-4)"/>
      <path d="M229,48.25H69c-11.05,0-20,8.95-20,20v58.55c0,61.89,37.35,117.66,94.59,141.22,3.47,1.43,7.36,1.43,10.83,0,57.23-23.56,94.59-79.33,94.59-141.22v-58.55c0-11.05-8.95-20-20-20Z" fill="url(#linear-gradient-5)"/>
      <path d="M154,263.86c43.67-26.38,71.18-74.72,71.18-127.68v-65.45c0-18.98-22.18-20.48-22.18-20.48h23.18c11.05,0,20,9.17,20,20.48v55.21c0,60.17-35.51,114.38-89.88,137.19-.75.31-1.51.55-2.29.73Z" fill="url(#linear-gradient-6)" fill-opacity=".58"/>
      <path d="M90.55,98.25c-.73,0-1.21.75-.91,1.41l47.01,104c.16.36.52.59.91.59h22.79c.39,0,.75-.23.91-.59l47.1-104c.3-.66-.18-1.41-.91-1.41h-32.35c-.41,0-.77.25-.93.63l-24.25,60.02c-.34.83-1.52.83-1.85,0l-24.25-60.02c-.15-.38-.52-.63-.93-.63h-32.35Z" fill="url(#linear-gradient-7)"/>
      <path d="M156.1,48.25h-87.6c-9,0-19.5,9-19.5,18.29,0,83.5,3.94,120.73,30.65,132.59,39.35,13.26,89.35-94.18,89.35-132.59,0-10.1-5.78-18.29-12.9-18.29Z" fill="url(#linear-gradient-8)" isolation="isolate" opacity=".58"/>
      <path d="M585.2,140.72v-38.22h-6.4v-8.83h6.4v-2.05c0-6.16,1.65-12.12,5.78-16.03,3.51-3.29,8.26-4.52,12.39-4.52,3.31,0,5.78.41,7.64,1.23l-1.03,9.04c-1.24-.41-2.89-.82-4.96-.82-5.99,0-8.06,4.93-8.06,10.68v2.47h10.33v8.83h-10.33v38.22h-11.78Z" fill="#5e8e39"/>
      <path d="M483.77,127.78c3.92,2.26,9.71,4.11,15.91,4.11,7.64,0,11.98-3.49,11.98-8.83,0-4.93-3.31-7.81-11.57-10.89-10.74-3.9-17.77-9.66-17.77-18.9,0-10.68,8.88-18.7,23.14-18.7,7.02,0,12.39,1.64,15.7,3.29l-2.89,9.66c-2.27-1.23-6.82-3.08-13.01-3.08-7.64,0-10.95,4.11-10.95,7.81,0,4.93,3.72,7.4,12.6,10.68,11.36,4.32,16.94,9.86,16.94,19.31,0,10.48-8.06,19.52-24.79,19.52-6.82,0-14.05-1.85-17.77-4.11l2.48-9.86Z" fill="#5e8e39"/>
      <path d="M290,75.59l21.07,65.13h13.63l22.72-65.13h-12.81l-9.5,29.79c-.18.57-.35,1.14-.53,1.7h0c-2.3,7.43-4.55,14.68-6.08,21.92h-.21c-1.65-8.01-3.93-15.62-6.4-23.83l-8.88-29.59h-13.02Z" fill="#5e8e39"/>
      <path d="M373.25,132.71c-7.44,0-14.25-3.7-14.46-12.12v-.21h31.4c.21-1.03.41-2.67.41-4.93,0-10.27-5.17-22.81-20.45-22.81s-23.14,12.33-23.14,25.27c0,14.38,9.09,23.83,24.38,23.83,6.82,0,12.39-1.23,16.53-2.88l-1.65-8.22c-3.51,1.23-7.44,2.06-13.01,2.06ZM369.95,100.66c7.85,0,9.71,7.19,9.71,11.51h-20.66c.41-4.93,3.51-11.51,10.95-11.51Z" fill="#5e8e39" fill-rule="evenodd"/>
      <path d="M400.52,108.87c0-6.37,0-10.89-.41-15.2h10.33l.41,9.04h.41c2.27-6.57,7.85-10.07,13.01-10.07,1.24,0,1.86,0,2.89.21v11.3c-1.03-.21-2.07-.41-3.51-.41-5.79,0-9.71,3.7-10.74,9.04-.21,1.03-.41,2.26-.41,3.7v24.25h-11.98v-31.85Z" fill="#5e8e39"/>
      <path d="M460.02,135.59l.83,5.14v.21h10.54c-.41-2.88-.62-6.99-.62-11.3v-17.05c0-10.07-4.34-19.72-19.42-19.72-7.44,0-13.63,2.05-17.15,4.11l2.27,7.81c3.31-2.05,8.06-3.49,12.81-3.49,8.47,0,9.71,5.14,9.71,8.22v.82c-17.56-.21-28.1,5.75-28.1,17.67,0,7.19,5.37,13.97,14.87,13.97,6.2,0,11.16-2.67,14.05-6.37h.21ZM442.66,126.54c0-7.19,8.06-9.04,16.53-8.83v6.58c0,.82-.21,1.85-.41,2.67-1.03,3.29-4.55,6.37-9.3,6.37-3.72,0-6.82-2.06-6.82-6.78Z" fill="#5e8e39" fill-rule="evenodd"/>
      <path d="M560.21,135.59l.83,5.14v.21h10.53c-.41-2.88-.62-6.99-.62-11.3v-17.05c0-10.07-4.34-19.72-19.42-19.72-7.44,0-13.63,2.05-17.15,4.11l2.27,7.81c3.31-2.05,8.06-3.49,12.81-3.49,8.47,0,9.71,5.14,9.71,8.22v.82c-17.56-.21-28.09,5.75-28.09,17.67,0,7.19,5.37,13.97,14.87,13.97,6.2,0,11.16-2.67,14.05-6.37h.21ZM543.06,126.54c0-7.19,8.06-9.04,16.53-8.83v6.58c0,.82-.21,1.85-.41,2.67-1.03,3.29-4.54,6.37-9.3,6.37-3.72,0-6.82-2.06-6.82-6.78Z" fill="#5e8e39" fill-rule="evenodd"/>
      <path d="M636.64,132.71c-7.44,0-14.25-3.7-14.46-12.12v-.21h31.4c.21-1.03.41-2.67.41-4.93,0-10.27-5.16-22.81-20.45-22.81s-23.14,12.33-23.14,25.27c0,14.38,9.09,23.83,24.38,23.83,6.82,0,12.39-1.23,16.53-2.88l-1.65-8.22c-3.51,1.23-7.44,2.06-13.01,2.06ZM633.13,100.66c7.85,0,9.71,7.19,9.71,11.51h-20.66c.41-4.93,3.51-11.51,10.95-11.51Z" fill="#5e8e39" fill-rule="evenodd"/>
      <path d="M582.2,138.72v-38.22h-6.4v-8.83h6.4v-2.05c0-6.16,1.65-12.12,5.78-16.03,3.51-3.29,8.26-4.52,12.39-4.52,3.31,0,5.78.41,7.64,1.23l-1.03,9.04c-1.24-.41-2.89-.82-4.96-.82-5.99,0-8.06,4.93-8.06,10.68v2.47h10.33v8.83h-10.33v38.22h-11.78Z" fill="#fff"/>
      <path d="M480.77,125.78c3.92,2.26,9.71,4.11,15.91,4.11,7.64,0,11.98-3.49,11.98-8.83,0-4.93-3.31-7.81-11.57-10.89-10.74-3.9-17.77-9.66-17.77-18.9,0-10.68,8.88-18.7,23.14-18.7,7.02,0,12.39,1.64,15.7,3.29l-2.89,9.66c-2.27-1.23-6.82-3.08-13.01-3.08-7.64,0-10.95,4.11-10.95,7.81,0,4.93,3.72,7.4,12.6,10.68,11.36,4.32,16.94,9.86,16.94,19.31,0,10.48-8.06,19.52-24.79,19.52-6.82,0-14.05-1.85-17.77-4.11l2.48-9.86Z" fill="#fff"/>
      <path d="M287,73.59l21.07,65.13h13.63l22.72-65.13h-12.81l-9.5,29.79c-.18.57-.35,1.14-.53,1.7h0c-2.3,7.43-4.55,14.68-6.08,21.92h-.21c-1.65-8.01-3.93-15.62-6.4-23.83l-8.88-29.59h-13.02Z" fill="#fff"/>
      <path d="M370.25,130.71c-7.44,0-14.25-3.7-14.46-12.12v-.21h31.4c.21-1.03.41-2.67.41-4.93,0-10.27-5.17-22.81-20.45-22.81s-23.14,12.33-23.14,25.27c0,14.38,9.09,23.83,24.38,23.83,6.82,0,12.39-1.23,16.53-2.88l-1.65-8.22c-3.51,1.23-7.44,2.06-13.01,2.06ZM366.95,98.66c7.85,0,9.71,7.19,9.71,11.51h-20.66c.41-4.93,3.51-11.51,10.95-11.51Z" fill="#fff" fill-rule="evenodd"/>
      <path d="M397.52,106.87c0-6.37,0-10.89-.41-15.2h10.33l.41,9.04h.41c2.27-6.57,7.85-10.07,13.01-10.07,1.24,0,1.86,0,2.89.21v11.3c-1.03-.21-2.07-.41-3.51-.41-5.79,0-9.71,3.7-10.74,9.04-.21,1.03-.41,2.26-.41,3.7v24.25h-11.98v-31.85Z" fill="#fff"/>
      <path d="M457.02,133.59l.83,5.14v.21h10.54c-.41-2.88-.62-6.99-.62-11.3v-17.05c0-10.07-4.34-19.72-19.42-19.72-7.44,0-13.63,2.05-17.15,4.11l2.27,7.81c3.31-2.05,8.06-3.49,12.81-3.49,8.47,0,9.71,5.14,9.71,8.22v.82c-17.56-.21-28.1,5.75-28.1,17.67,0,7.19,5.37,13.97,14.87,13.97,6.2,0,11.16-2.67,14.05-6.37h.21ZM439.66,124.54c0-7.19,8.06-9.04,16.53-8.83v6.58c0,.82-.21,1.85-.41,2.67-1.03,3.29-4.55,6.37-9.3,6.37-3.72,0-6.82-2.06-6.82-6.78Z" fill="#fff" fill-rule="evenodd"/>
      <path d="M557.21,133.59l.83,5.14v.21h10.53c-.41-2.88-.62-6.99-.62-11.3v-17.05c0-10.07-4.34-19.72-19.42-19.72-7.44,0-13.63,2.05-17.15,4.11l2.27,7.81c3.31-2.05,8.06-3.49,12.81-3.49,8.47,0,9.71,5.14,9.71,8.22v.82c-17.56-.21-28.09,5.75-28.09,17.67,0,7.19,5.37,13.97,14.87,13.97,6.2,0,11.16-2.67,14.05-6.37h.21ZM540.06,124.54c0-7.19,8.06-9.04,16.53-8.83v6.58c0,.82-.21,1.85-.41,2.67-1.03,3.29-4.54,6.37-9.3,6.37-3.72,0-6.82-2.06-6.82-6.78Z" fill="#fff" fill-rule="evenodd"/>
      <path d="M633.64,130.71c-7.44,0-14.25-3.7-14.46-12.12v-.21h31.4c.21-1.03.41-2.67.41-4.93,0-10.27-5.16-22.81-20.45-22.81s-23.14,12.33-23.14,25.27c0,14.38,9.09,23.83,24.38,23.83,6.82,0,12.39-1.23,16.53-2.88l-1.65-8.22c-3.51,1.23-7.44,2.06-13.01,2.06ZM630.13,98.66c7.85,0,9.71,7.19,9.71,11.51h-20.66c.41-4.93,3.51-11.51,10.95-11.51Z" fill="#fff" fill-rule="evenodd"/>
      <g>
        <polygon points="657.44 63.09 657.44 65.77 652.34 65.77 652.34 79.22 649.51 79.22 649.51 65.77 644.41 65.77 644.41 63.09 657.44 63.09" fill="#5e8e39"/>
        <path d="M675.71,79.22h-3.2s-.61-10.95-.62-11.09l-4.17,10.75h-2.14s-3.53-9.09-3.81-9.93c-.05,1.12-1.1,10.27-1.1,10.27h-2.81l1.17-16.13h3.35s4.12,10.83,4.32,11.39c.2-.57,4.1-11.39,4.1-11.39h3.74l1.17,16.13h0Z" fill="#5e8e39"/>
      </g>
      <g>
        <polygon points="655.44 62.09 655.44 64.77 650.34 64.77 650.34 78.22 647.51 78.22 647.51 64.77 642.41 64.77 642.41 62.09 655.44 62.09" fill="#fff"/>
        <path d="M673.71,78.22h-3.2s-.61-10.95-.62-11.09l-4.17,10.75h-2.14s-3.53-9.09-3.81-9.93c-.05,1.12-1.1,10.27-1.1,10.27h-2.81l1.17-16.13h3.35s4.12,10.83,4.32,11.39c.2-.57,4.1-11.39,4.1-11.39h3.74l1.17,16.13h0Z" fill="#fff"/>
      </g>
    </g>
  </g>
</svg>