<svg xmlns="http://www.w3.org/2000/svg" viewBox="0 0 385.92 470.25"><title>tes_footer</title><g id="Layer_2" data-name="Layer 2"><g id="Isolation_Mode" data-name="Isolation Mode"><path d="M140.48,469.48c-1.86-.88-4.07-1.58-5.35-3-7.22-8.23-12.73-17.41-14.28-28.52-.62-4.41,2.33-7.58,6.88-7.15,9.06.85,18.1,1.85,27.94,2.87.37,9.53.76,18.78,1.07,28,.1,3.16-.89,6.5,2.7,8.57h75c-1.13-2.24-4.73-4.38-7.33-4.54-17.27-1.05-26.68-12.13-32.1-26.47-2.55-6.75-1-15.08-1.2-22.7a41.07,41.07,0,0,1,.06-7.19c.6-4.26,1.94-8.44,2.31-12.7.92-10.75.91-21.61,2.32-32.29,2.25-17.05,5.69-33.94,8-51,1.64-12.3,1.94-24.78,3.34-37.12,1.07-9.34,2.94-18.6,4.46-27.9.13-.8.34-1.6.39-2.41.53-8.86.21-17.89,1.79-26.57,1.77-9.69,1.12-19.14.34-28.72a36.15,36.15,0,0,1,.1-4c6.24,6.13,12.58,11.66,18.07,17.93,9.09,10.38,17.63,21.24,26.37,31.92,2.15,2.62,4.38,1.82,6.55.21,1.66-1.24,3.15-2.72,4.84-4.2,1.2,3.06,1.61,6.26,3.4,8.09,2,2,5.3,2.63,7.9,4.1,1.87,1.06,3.33,3.07,5.29,3.87l8.45,221.72h6.52l-8.45-222c4.34,1.09,9.18,2,13.41,1a3.71,3.71,0,0,0-.13-1c-2.37-8.65-4.69-17.55-14.1-21.5l-.72-19a8.73,8.73,0,1,0-6.54-.32l.63,16.49c-.35-.18-.71-.36-1.05-.57a18.72,18.72,0,0,1-5.43-4.55c-5.68-7.78-11.15-15.71-16.61-23.64-11.46-16.64-24.2-32.47-32.15-51.33-3.08-7.3-7.66-14.09-9.88-21.61-3.42-11.54-5.32-23.53-8.05-35.29-.7-3-.14-6.93-5.81-6.78-2,0-5.32-4.28-5.65-6.91-.22-1.76,3.44-4.22,7.18-3.29,1.25.31,3.67-1.53,4.61-3,3-4.64,4.28-10.52,10.25-12.84a2.83,2.83,0,0,0,1.32-2.43c-2.53-7.39,2.93-14,1.94-21.26-.25-1.84,1.09-3.86,1.08-5.79,0-3.34.82-8.24-1-9.76C221.07,8.21,213.12.52,201.75,0c-3.23-.15-7.43.69-9.68,2.74-8.26,7.52-12.61,16.93-10,28.43,1.08,4.81-2.85,8.49-2.47,13.07,0,.33-.61.73-1,1.08q-4.86,5-9.73,9.93c-4.25,4.31-8.25,8.93-12.84,12.85-4.28,3.65-9.42,6.28-13.79,9.85-1.15.94-2.26,1.9-3.31,2.88-20.61,15.94-19,81.65-19,81.65h0c-.32,13.88.93,27.76,1.87,41.65.36,5.21,1.13,11.15-.87,15.6a163.18,163.18,0,0,1-15,25.75c-10.31,14.89-21.45,29.19-31.81,44-6.43,9.23-11.79,19.22-18.1,28.54-9.81,14.47-20.39,28.43-29.91,43.09-4.52,6.95-7.24,15.05-11,22.53a42,42,0,0,1-5.27,7.94c-1.65,2-4.32,3.2-5.74,5.3a30.55,30.55,0,0,0-3.95,8.81c-.39,1.37.29,3.93,1.36,4.64A24.21,24.21,0,0,0,9.82,414c4.73,1,9.6,1.23,14.51,1.81l-1.3,2.8c5,1.89,9.62,4.26,14.56,5.43,13.87,3.32,28,5.66,41.76,9.31,11.17,3,13.16,5.29,9.26,13.26-2,4-3.59,8.16-5.56,12.7,5.9,1.2,5.45,4.17,4.07,7.7a8.85,8.85,0,0,0-1,3.21H142.1Z" style="fill:#fff"/><path d="M331.9,182.63l3.86,5L314.56,196l0,.29,36.08-1.08-3.76-4.89L368.73,185,365,180.1l20.93-9-.05-.36-35.73,2,4,5.17Z" style="fill:#fff"/><path d="M296.45,178.46,337.69,126l-11.4-.47L344.56,88.2l-11.34-.46c4.06-13.63,8-27,12-40.37l-.57-.34-39.54,53,12.05.49-19.62,37.13,11.7.48c-4.49,13.52-8.89,26.75-13.28,40Z" style="fill:#fff"/></g></g></svg>