<?xml version="1.0" encoding="utf-8"?>
<!-- Generator: Adobe Illustrator 16.0.0, SVG Export Plug-In . SVG Version: 6.00 Build 0)  -->
<!DOCTYPE svg PUBLIC "-//W3C//DTD SVG 1.1//EN" "http://www.w3.org/Graphics/SVG/1.1/DTD/svg11.dtd">
<svg version="1.1" id="Layer_1" xmlns="http://www.w3.org/2000/svg" xmlns:xlink="http://www.w3.org/1999/xlink" x="0px" y="0px"
	 width="298px" height="62px" viewBox="0 0 298 62" enable-background="new 0 0 298 62" xml:space="preserve">
<g>
	<path d="M6.979,35.09c2.914,2.846,6.521,4.995,10.545,4.995c2.567,0,6.451-0.832,6.451-3.538c0-1.249-0.763-1.734-1.387-2.081
		c-1.596-0.832-4.093-1.041-6.174-1.387c-1.596-0.278-3.261-0.625-4.857-1.111c-2.22-0.624-4.439-1.526-6.035-3.121
		c-1.596-1.596-2.706-4.093-2.706-6.799c0-5.966,5.134-12.141,15.263-12.141c8.533,0,13.666,3.677,16.164,5.412l-6.591,6.104
		c-3.399-2.637-6.59-3.608-9.088-3.608c-4.162,0-5.133,1.665-5.133,2.706c0,2.081,2.289,2.497,5.758,3.121
		c7.284,1.319,15.747,3.262,15.747,11.863c0,8.533-8.602,12.696-17.135,12.696c-10.059,0-15.262-4.857-17.551-7.008L6.979,35.09z"/>
	<path d="M68.909,11.087L56.144,50.215c-0.832,2.357-1.595,4.578-3.399,6.59c-2.497,2.705-4.926,2.844-7.701,2.913h-7.7v-8.463
		h3.746c1.735-0.069,4.44-0.069,4.44-2.637c0-0.902-0.277-1.804-0.486-2.566L34.222,11.087H45.6l5.966,25.945l5.966-25.945H68.909z"
		/>
	<path d="M80.63,14.903c1.248-1.457,4.024-4.717,10.267-4.717c5.966,0,8.117,2.22,10.059,4.231
		c2.081-1.734,4.995-4.231,10.753-4.231c5.966,0,9.019,2.981,10.129,5.201c0.902,1.943,0.971,4.441,0.971,8.326V47.3h-10.545V28.292
		c0-2.081,0-4.787-0.416-6.174c-0.971-3.052-3.815-3.26-4.648-3.26c-1.041,0-2.428,0.276-3.469,1.108
		c-2.012,1.597-2.012,3.678-2.012,7.633V47.3H91.175V25.864c0-1.596-0.07-3.746-1.041-5.134c-0.833-1.109-2.428-1.872-4.162-1.872
		c-0.833,0-1.943,0.208-2.914,0.832c-2.359,1.595-2.428,4.509-2.428,7.007V47.3H70.085V11.157H80.63V14.903z"/>
	<path d="M136.181,14.903c1.249-1.457,4.024-4.717,10.267-4.717c5.966,0,8.116,2.22,10.06,4.231
		c2.082-1.734,4.994-4.231,10.752-4.231c5.967,0,9.02,2.981,10.129,5.201c0.902,1.943,0.973,4.441,0.973,8.326V47.3h-10.547V28.292
		c0-2.081,0-4.787-0.414-6.174c-0.973-3.052-3.815-3.26-4.647-3.26c-1.041,0-2.428,0.276-3.469,1.108
		c-2.013,1.597-2.013,3.678-2.013,7.633V47.3h-10.544V25.864c0-1.596-0.07-3.746-1.041-5.134c-0.833-1.109-2.428-1.872-4.162-1.872
		c-0.833,0-1.943,0.208-2.914,0.832c-2.359,1.595-2.428,4.509-2.428,7.007V47.3h-10.545V11.157h10.545L136.181,14.903
		L136.181,14.903z"/>
	<path d="M206.004,24.685c-0.207-1.526-0.484-3.538-2.012-5.134c-1.316-1.318-3.33-2.013-5.203-2.013
		c-2.564,0-4.371,1.249-5.41,2.359c-1.457,1.596-1.803,3.261-2.148,4.787L206.004,24.685L206.004,24.685z M216.619,38.074
		c-1.25,1.873-2.496,3.677-4.371,5.41c-3.121,2.914-7.84,5.135-13.668,5.135c-10.75,0-18.312-6.868-18.312-18.73
		c0-8.741,4.301-19.98,18.592-19.98c2.152,0,8.396,0.208,13.043,5.203c4.718,5.065,4.994,12.141,5.134,16.234H191.16
		c-0.069,4.509,2.496,9.018,8.254,9.018c5.828,0,7.84-3.816,9.158-6.382L216.619,38.074z"/>
	<path d="M221.055,0.612h10.615V11.92h7.006v6.521H231.6v16.303c-0.067,2.221-0.067,4.094,2.775,4.094l3.814-0.14v8.325
		c-2.289,0.347-3.678,0.555-5.619,0.555c-3.676,0-7.699-0.208-9.99-3.538c-1.455-2.149-1.525-4.718-1.525-8.187V18.372h-5.272V11.85
		h5.272V0.612z"/>
	<path d="M251.093,14.833c2.358-2.012,4.925-3.608,10.476-4.162v9.435l-3.539,0.555c-5.133,0.902-6.659,1.665-6.659,6.244V47.3
		h-10.685V11.017h10.407V14.833z"/>
	<path d="M297.75,11.087l-12.764,39.128c-0.834,2.357-1.596,4.578-3.4,6.59c-2.497,2.705-4.924,2.844-7.7,2.913h-7.7v-8.463h3.748
		c1.732-0.069,4.438-0.069,4.438-2.637c0-0.902-0.276-1.804-0.485-2.566l-10.82-34.965h11.377l5.967,25.945l5.965-25.945H297.75z"/>
	<path d="M94.678,55.378c-0.219-0.329-0.584-0.56-1.071-0.56c-0.985,0-1.46,0.888-1.46,1.85c0,0.109,0.012,1.934,1.435,1.934
		c0.755,0,1.436-0.56,1.424-1.873C94.994,56.339,94.945,55.779,94.678,55.378 M96.466,51.145v8.59h-1.448V59.15
		c-0.45,0.548-1.058,0.767-1.691,0.767c-1.448,0-2.701-1.083-2.701-3.09c0-1.813,1.022-3.358,2.762-3.358
		c0.596,0,1.168,0.17,1.63,0.682v-3.006H96.466L96.466,51.145z"/>
	<path d="M99.702,59.734h-1.448V53.65h1.448V59.734z M99.702,52.702h-1.448V51.23h1.448V52.702z"/>
	<path d="M101.465,53.65h1.448v0.682c0.487-0.607,1.35-0.864,1.922-0.864c0.572,0,1.29,0.222,1.691,0.938
		c0.244-0.34,0.876-0.938,1.947-0.938c0.608,0,1.192,0.171,1.606,0.621c0.487,0.536,0.475,1.181,0.475,1.813v3.832h-1.448v-3.358
		c0-0.571,0.085-1.533-1.022-1.533c-0.463,0-0.84,0.257-1.034,0.572c-0.28,0.451-0.317,0.937-0.317,1.46v2.859h-1.448v-3.396
		c0-0.438,0-0.596-0.048-0.778c-0.11-0.4-0.426-0.719-0.937-0.719c-0.438,0-0.864,0.256-1.119,0.706
		c-0.256,0.476-0.268,1.048-0.268,1.644v2.543h-1.448V53.65z"/>
	<path d="M116.368,55.914c-0.133-0.949-0.717-1.277-1.362-1.277c-0.779,0-1.314,0.45-1.485,1.277H116.368z M118.022,58.372
		c-0.754,1.01-1.727,1.545-2.969,1.545c-1.593,0-3.127-1.01-3.127-3.249c0-2.044,1.315-3.2,3.03-3.2
		c1.606,0,2.275,0.962,2.397,1.146c0.499,0.705,0.608,1.764,0.62,2.373h-4.501c0.17,0.961,0.766,1.508,1.727,1.508
		c0.998,0,1.4-0.584,1.582-0.84L118.022,58.372z"/>
	<path d="M119.299,53.65h1.473v0.719c0.072-0.109,0.218-0.305,0.474-0.475c0.365-0.269,0.925-0.428,1.399-0.428
		c0.694,0,1.29,0.317,1.594,0.731c0.377,0.511,0.377,1.168,0.377,1.959v3.577h-1.448V56.63c0-0.45,0-0.754-0.049-0.925
		c-0.133-0.535-0.523-0.814-0.997-0.814c-0.475,0-0.912,0.279-1.119,0.682c-0.231,0.451-0.231,1.07-0.231,1.521v2.642h-1.473V53.65z
		"/>
	<path d="M126.902,57.934c0.365,0.449,0.913,0.778,1.752,0.778c0.839,0,1.204-0.414,1.204-0.718c0-0.391-0.437-0.487-0.632-0.523
		c-0.207-0.049-1.205-0.229-1.424-0.291c-1.448-0.342-1.715-1.181-1.715-1.729c0-1.034,0.936-1.983,2.603-1.983
		c0.925,0,1.595,0.292,2.008,0.584c0.304,0.194,0.499,0.401,0.621,0.548l-1.034,0.961c-0.171-0.328-0.585-0.925-1.656-0.925
		c-0.693,0-1.009,0.304-1.009,0.621c0,0.438,0.45,0.56,1.229,0.693c1.265,0.229,1.618,0.292,2.007,0.596
		c0.377,0.292,0.621,0.779,0.621,1.29c0,0.949-0.852,2.08-2.738,2.08c-1.083,0-2.153-0.34-2.92-1.082L126.902,57.934z"/>
	<path d="M134.311,59.734h-1.448V53.65h1.448V59.734z M134.311,52.702h-1.448V51.23h1.448V52.702z"/>
	<path d="M138.812,54.783c-0.912,0-1.57,0.729-1.57,1.849c0,1.253,0.767,1.947,1.643,1.947c1.058,0,1.594-0.925,1.557-1.935
		C140.418,55.633,139.834,54.783,138.812,54.783 M138.885,59.917c-1.898,0-3.163-1.388-3.163-3.249c0-1.859,1.289-3.2,3.102-3.2
		c1.691,0,3.139,1.183,3.151,3.2C141.975,58.566,140.722,59.917,138.885,59.917"/>
	<path d="M143.336,53.65h1.473v0.719c0.072-0.109,0.218-0.305,0.474-0.475c0.365-0.269,0.925-0.428,1.399-0.428
		c0.694,0,1.29,0.317,1.594,0.731c0.377,0.511,0.377,1.168,0.377,1.959v3.577h-1.448V56.63c0-0.45,0-0.754-0.049-0.925
		c-0.133-0.535-0.523-0.814-0.997-0.814c-0.475,0-0.912,0.279-1.119,0.682c-0.231,0.451-0.231,1.07-0.231,1.521v2.642h-1.473V53.65z
		"/>
	<path d="M150.939,57.934c0.365,0.449,0.914,0.778,1.752,0.778c0.84,0,1.205-0.414,1.205-0.718c0-0.391-0.438-0.487-0.633-0.523
		c-0.207-0.049-1.205-0.229-1.425-0.291c-1.446-0.342-1.715-1.181-1.715-1.729c0-1.034,0.937-1.983,2.604-1.983
		c0.924,0,1.595,0.292,2.008,0.584c0.304,0.194,0.498,0.401,0.619,0.548l-1.032,0.961c-0.171-0.328-0.585-0.925-1.656-0.925
		c-0.692,0-1.009,0.304-1.009,0.621c0,0.438,0.449,0.56,1.229,0.693c1.266,0.229,1.619,0.292,2.008,0.596
		c0.377,0.292,0.621,0.779,0.621,1.29c0,0.949-0.853,2.08-2.738,2.08c-1.082,0-2.152-0.34-2.92-1.082L150.939,57.934z"/>
	<path d="M163.105,54.783c-0.912,0-1.569,0.729-1.569,1.849c0,1.253,0.766,1.947,1.644,1.947c1.057,0,1.592-0.925,1.557-1.935
		C164.711,55.633,164.127,54.783,163.105,54.783 M163.18,59.917c-1.9,0-3.164-1.388-3.164-3.249c0-1.859,1.289-3.2,3.103-3.2
		c1.69,0,3.14,1.183,3.151,3.2C166.27,58.566,165.016,59.917,163.18,59.917"/>
	<path d="M169.285,54.686v5.049h-1.46v-5.049h-0.913v-1.047h0.913v-0.693c-0.013-0.863-0.013-1.812,1.959-1.812
		c0.292,0,0.56,0.023,0.827,0.049v1.241c-0.123-0.024-0.256-0.037-0.463-0.037c-0.39,0-0.621,0.085-0.767,0.304
		c-0.049,0.086-0.098,0.27-0.098,0.451v0.498h1.325v1.047H169.285L169.285,54.686z"/>
	<path d="M178.043,58.542c0.707,0,1.473-0.485,1.473-1.86c0-1.521-1.059-1.812-1.496-1.812c-0.668,0-1.436,0.486-1.459,1.789
		C176.535,57.909,177.229,58.542,178.043,58.542 M175.125,53.65h1.447v0.561c0.229-0.244,0.717-0.743,1.668-0.743
		c1.787,0,2.76,1.607,2.76,3.286c0,1.812-1.131,3.163-2.76,3.163c-0.842,0-1.363-0.401-1.668-0.681v2.48h-1.447V53.65z"/>
	<path d="M185.963,56.705c-0.291,0.146-0.619,0.256-1.277,0.365c-0.521,0.072-1.215,0.193-1.215,0.839
		c0,0.476,0.4,0.719,0.984,0.719c0.742,0,1.266-0.342,1.423-0.706c0.085-0.183,0.085-0.365,0.085-0.547V56.705L185.963,56.705z
		 M182.204,55.439c0.024-0.305,0.049-0.56,0.243-0.912c0.584-1.06,2.033-1.06,2.421-1.06c0.585,0,1.291,0.073,1.825,0.39
		c0.719,0.438,0.729,1.01,0.729,1.666v3.227c0,0.462,0,0.619,0.269,0.984h-1.729c-0.011-0.146-0.035-0.389-0.035-0.476
		c-0.315,0.269-0.961,0.621-1.802,0.621c-1.374,0-2.202-0.853-2.202-1.897c0-0.305,0.074-0.584,0.195-0.828
		c0.438-0.875,1.374-1.069,1.959-1.18c1.254-0.256,1.353-0.279,1.885-0.451c0-0.303-0.022-0.924-1.032-0.924
		c-0.609,0-0.938,0.194-1.082,0.39c-0.158,0.194-0.146,0.364-0.146,0.534L182.204,55.439z"/>
	<path d="M190.574,53.65v0.863c0.183-0.314,0.584-1.033,1.947-0.996v1.496c-0.316,0.012-0.864,0.023-1.314,0.364
		c-0.621,0.476-0.633,1.095-0.633,2.104v2.252h-1.412V53.65H190.574L190.574,53.65z"/>
	<path d="M195.27,54.697v2.75c0,0.754,0,1.082,0.693,1.082c0.221,0,0.402-0.012,0.607-0.072v1.229
		c-0.438,0.073-0.729,0.099-1.059,0.099c-0.303,0-1.324,0-1.605-0.741c-0.098-0.244-0.098-0.634-0.098-1.241v-3.104h-0.888V53.65
		h0.888v-2.153h1.461v2.153h1.301v1.047H195.27z"/>
	<path d="M199.102,59.734h-1.447V53.65h1.447V59.734z M199.102,52.702h-1.447V51.23h1.447V52.702z"/>
	<path d="M204.771,55.805c-0.108-0.402-0.537-1.035-1.375-1.035c-0.84,0-1.51,0.67-1.51,1.887c0,1.096,0.572,1.898,1.533,1.898
		c0.926,0,1.277-0.707,1.459-1.193l1.254,0.658c-0.475,1.312-1.678,1.897-2.736,1.897c-1.69,0-3.018-1.303-3.018-3.226
		c0-1.86,1.338-3.225,3.064-3.225c1.533,0,2.312,1.021,2.627,1.729L204.771,55.805z"/>
	<rect x="207.143" y="51.145" width="1.471" height="8.59"/>
	<path d="M214.43,55.914c-0.133-0.949-0.719-1.277-1.361-1.277c-0.778,0-1.315,0.45-1.483,1.277H214.43z M216.084,58.372
		c-0.754,1.01-1.729,1.545-2.969,1.545c-1.594,0-3.127-1.01-3.127-3.249c0-2.044,1.313-3.2,3.029-3.2
		c1.606,0,2.274,0.962,2.396,1.146c0.5,0.705,0.609,1.764,0.621,2.373h-4.501c0.171,0.961,0.767,1.508,1.728,1.508
		c0.998,0,1.4-0.584,1.582-0.84L216.084,58.372z"/>
	<path d="M223.784,58.542c0.706,0,1.472-0.485,1.472-1.86c0-1.521-1.058-1.812-1.496-1.812c-0.668,0-1.436,0.486-1.461,1.789
		C222.275,57.909,222.969,58.542,223.784,58.542 M220.863,53.65h1.449v0.561c0.229-0.244,0.717-0.743,1.666-0.743
		c1.789,0,2.762,1.607,2.762,3.286c0,1.812-1.131,3.163-2.762,3.163c-0.838,0-1.362-0.401-1.666-0.681v2.48h-1.449V53.65z"/>
	<path d="M229.562,51.145v3.125c0.463-0.461,1.096-0.802,1.934-0.802c0.756,0,1.34,0.292,1.668,0.657
		c0.5,0.535,0.512,1.156,0.512,1.85v3.76h-1.436v-3.346c-0.025-0.549-0.025-0.683-0.1-0.863c-0.049-0.123-0.255-0.67-1.058-0.67
		c-0.938,0-1.375,0.754-1.474,1.106c-0.049,0.195-0.049,0.292-0.049,0.974v2.799h-1.459v-8.59H229.562z"/>
	<path d="M240.342,53.65l-1.545,5.306l-0.342,1.144c-0.413,1.277-0.863,1.729-1.994,1.729c-0.477,0-0.707-0.049-0.876-0.073v-1.276
		c0.134,0.023,0.243,0.035,0.388,0.035c0.111,0,0.428,0,0.658-0.156c0.17-0.11,0.34-0.377,0.34-0.5l-2.201-6.205h1.568l1.352,4.539
		l1.156-4.539h1.496V53.65z"/>
	<path d="M241.984,57.934c0.363,0.449,0.912,0.778,1.752,0.778c0.838,0,1.203-0.414,1.203-0.718c0-0.391-0.438-0.487-0.633-0.523
		c-0.207-0.049-1.205-0.229-1.424-0.291c-1.447-0.342-1.715-1.181-1.715-1.729c0-1.034,0.936-1.983,2.604-1.983
		c0.926,0,1.596,0.292,2.008,0.584c0.305,0.194,0.498,0.401,0.621,0.548l-1.033,0.961c-0.172-0.328-0.586-0.925-1.656-0.925
		c-0.693,0-1.01,0.304-1.01,0.621c0,0.438,0.449,0.56,1.229,0.693c1.266,0.229,1.619,0.292,2.008,0.596
		c0.377,0.292,0.621,0.779,0.621,1.29c0,0.949-0.852,2.08-2.738,2.08c-1.082,0-2.151-0.34-2.92-1.082L241.984,57.934z"/>
	<path d="M249.393,59.734h-1.449V53.65h1.449V59.734z M249.393,52.702h-1.449V51.23h1.449V52.702z"/>
	<path d="M255.062,55.805c-0.109-0.402-0.537-1.035-1.375-1.035c-0.84,0-1.51,0.67-1.51,1.887c0,1.096,0.572,1.898,1.533,1.898
		c0.924,0,1.277-0.707,1.459-1.193l1.254,0.658c-0.475,1.312-1.679,1.897-2.736,1.897c-1.691,0-3.018-1.303-3.018-3.226
		c0-1.86,1.338-3.225,3.064-3.225c1.533,0,2.312,1.021,2.627,1.729L255.062,55.805z"/>
	<path d="M257.992,57.934c0.365,0.449,0.912,0.778,1.752,0.778s1.205-0.414,1.205-0.718c0-0.391-0.439-0.487-0.633-0.523
		c-0.207-0.049-1.205-0.229-1.424-0.291c-1.449-0.342-1.716-1.181-1.716-1.729c0-1.034,0.938-1.983,2.603-1.983
		c0.926,0,1.596,0.292,2.01,0.584c0.305,0.194,0.498,0.401,0.62,0.548l-1.034,0.961c-0.17-0.328-0.584-0.925-1.654-0.925
		c-0.693,0-1.01,0.304-1.01,0.621c0,0.438,0.449,0.56,1.229,0.693c1.267,0.229,1.619,0.292,2.009,0.596
		c0.377,0.292,0.62,0.779,0.62,1.29c0,0.949-0.852,2.08-2.737,2.08c-1.082,0-2.154-0.34-2.92-1.082L257.992,57.934z"/>
</g>
</svg>
