<?xml version="1.0" encoding="utf-8"?>
<!-- Generator: Adobe Illustrator 15.0.0, SVG Export Plug-In . SVG Version: 6.00 Build 0)  -->
<!DOCTYPE svg PUBLIC "-//W3C//DTD SVG 1.1//EN" "http://www.w3.org/Graphics/SVG/1.1/DTD/svg11.dtd">
<svg version="1.1" id="Layer_1" xmlns="http://www.w3.org/2000/svg" xmlns:xlink="http://www.w3.org/1999/xlink" x="0px" y="0px"
	 width="298px" height="62px" viewBox="0 0 298 62" enable-background="new 0 0 298 62" xml:space="preserve">
<g>
	<path fill="#FFFEFD" d="M6.979,35.09c2.914,2.845,6.521,4.995,10.545,4.995c2.567,0,6.451-0.832,6.451-3.538
		c0-1.249-0.763-1.734-1.387-2.081c-1.596-0.832-4.093-1.041-6.174-1.387c-1.596-0.278-3.261-0.625-4.857-1.111
		c-2.22-0.624-4.439-1.526-6.035-3.121c-1.596-1.596-2.706-4.093-2.706-6.799c0-5.966,5.134-12.141,15.263-12.141
		c8.533,0,13.666,3.677,16.164,5.412l-6.591,6.104c-3.399-2.637-6.59-3.608-9.088-3.608c-4.162,0-5.133,1.665-5.133,2.706
		c0,2.081,2.289,2.497,5.758,3.121c7.284,1.319,15.747,3.262,15.747,11.863c0,8.533-8.602,12.696-17.135,12.696
		c-10.059,0-15.262-4.857-17.551-7.007L6.979,35.09z"/>
	<path fill="#FFFEFD" d="M68.909,11.087L56.144,50.215c-0.832,2.357-1.595,4.578-3.399,6.59c-2.497,2.705-4.926,2.844-7.701,2.913
		h-7.7v-8.463h3.746c1.735-0.069,4.44-0.069,4.44-2.637c0-0.902-0.277-1.804-0.486-2.566L34.222,11.087H45.6l5.966,25.945
		l5.966-25.945H68.909z"/>
	<path fill="#FFFEFD" d="M80.63,14.903c1.248-1.457,4.024-4.717,10.267-4.717c5.966,0,8.117,2.22,10.059,4.231
		c2.081-1.734,4.995-4.231,10.753-4.231c5.966,0,9.019,2.981,10.129,5.201c0.902,1.943,0.971,4.441,0.971,8.326V47.3h-10.545V28.292
		c0-2.081,0-4.787-0.416-6.174c-0.971-3.052-3.815-3.26-4.648-3.26c-1.041,0-2.428,0.276-3.469,1.108
		c-2.012,1.597-2.012,3.678-2.012,7.633V47.3H91.175V25.864c0-1.596-0.07-3.746-1.041-5.134c-0.833-1.109-2.428-1.872-4.162-1.872
		c-0.833,0-1.943,0.208-2.914,0.832c-2.359,1.595-2.428,4.509-2.428,7.007V47.3H70.085V11.157H80.63V14.903z"/>
	<path fill="#FFFEFD" d="M136.181,14.903c1.249-1.457,4.024-4.717,10.267-4.717c5.966,0,8.117,2.22,10.06,4.231
		c2.082-1.734,4.994-4.231,10.752-4.231c5.967,0,9.02,2.981,10.129,5.201c0.902,1.943,0.972,4.441,0.972,8.326V47.3h-10.546V28.292
		c0-2.081,0-4.787-0.415-6.174c-0.972-3.052-3.815-3.26-4.647-3.26c-1.041,0-2.428,0.276-3.469,1.108
		c-2.012,1.597-2.012,3.678-2.012,7.633V47.3h-10.545V25.864c0-1.596-0.07-3.746-1.041-5.134c-0.833-1.109-2.428-1.872-4.162-1.872
		c-0.833,0-1.943,0.208-2.914,0.832c-2.359,1.595-2.428,4.509-2.428,7.007V47.3h-10.545V11.157h10.545V14.903z"/>
	<path fill="#FFFEFD" d="M206.004,24.685c-0.207-1.526-0.485-3.538-2.012-5.134c-1.316-1.318-3.33-2.013-5.203-2.013
		c-2.565,0-4.371,1.249-5.41,2.359c-1.457,1.596-1.803,3.261-2.149,4.787H206.004z M216.619,38.074
		c-1.25,1.873-2.496,3.677-4.371,5.411c-3.121,2.914-7.84,5.134-13.668,5.134c-10.75,0-18.313-6.868-18.313-18.73
		c0-8.741,4.302-19.98,18.593-19.98c2.151,0,8.395,0.208,13.043,5.203c4.717,5.065,4.993,12.141,5.133,16.234H191.16
		c-0.069,4.509,2.496,9.018,8.254,9.018c5.828,0,7.84-3.816,9.158-6.382L216.619,38.074z"/>
	<path fill="#FFFEFD" d="M221.055,0.612h10.615V11.92h7.006v6.521H231.6v16.303c-0.068,2.221-0.068,4.094,2.775,4.094l3.814-0.14
		v8.325c-2.288,0.347-3.677,0.555-5.619,0.555c-3.676,0-7.699-0.208-9.99-3.538c-1.455-2.15-1.525-4.718-1.525-8.186V18.372h-5.273
		V11.85h5.273V0.612z"/>
	<path fill="#FFFEFD" d="M251.093,14.833c2.358-2.012,4.924-3.608,10.476-4.162v9.435l-3.539,0.555
		c-5.133,0.902-6.66,1.665-6.66,6.244V47.3h-10.685V11.017h10.408V14.833z"/>
	<path fill="#FFFEFD" d="M297.75,11.087l-12.764,39.128c-0.834,2.357-1.596,4.578-3.4,6.59c-2.497,2.705-4.924,2.844-7.7,2.913h-7.7
		v-8.463h3.748c1.732-0.069,4.438-0.069,4.438-2.637c0-0.902-0.276-1.804-0.485-2.566l-10.821-34.965h11.377l5.967,25.945
		l5.965-25.945H297.75z"/>
	<path fill="#FFFEFD" d="M94.678,55.378c-0.219-0.329-0.584-0.56-1.071-0.56c-0.985,0-1.46,0.888-1.46,1.85
		c0,0.109,0.012,1.934,1.435,1.934c0.755,0,1.436-0.56,1.424-1.873C94.994,56.339,94.945,55.78,94.678,55.378 M96.466,51.144v8.591
		h-1.448v-0.584c-0.45,0.547-1.058,0.766-1.691,0.766c-1.448,0-2.701-1.083-2.701-3.09c0-1.813,1.022-3.358,2.762-3.358
		c0.596,0,1.168,0.17,1.63,0.682v-3.006H96.466z"/>
	<path fill="#FFFEFD" d="M99.702,59.734h-1.448V53.65h1.448V59.734z M99.702,52.702h-1.448V51.23h1.448V52.702z"/>
	<path fill="#FFFEFD" d="M101.465,53.651h1.448v0.681c0.487-0.608,1.35-0.864,1.922-0.864c0.572,0,1.29,0.221,1.691,0.938
		c0.244-0.34,0.876-0.938,1.947-0.938c0.608,0,1.192,0.171,1.606,0.621c0.487,0.536,0.475,1.181,0.475,1.813v3.833h-1.448v-3.359
		c0-0.571,0.085-1.533-1.022-1.533c-0.463,0-0.84,0.256-1.034,0.572c-0.28,0.451-0.317,0.937-0.317,1.46v2.86h-1.448v-3.396
		c0-0.438,0-0.596-0.048-0.778c-0.11-0.401-0.426-0.719-0.937-0.719c-0.438,0-0.864,0.256-1.119,0.706
		c-0.256,0.476-0.268,1.047-0.268,1.644v2.543h-1.448V53.651z"/>
	<path fill="#FFFEFD" d="M116.368,55.914c-0.133-0.949-0.717-1.277-1.362-1.277c-0.779,0-1.314,0.45-1.485,1.277H116.368z
		 M118.022,58.372c-0.754,1.01-1.727,1.545-2.969,1.545c-1.593,0-3.127-1.01-3.127-3.249c0-2.044,1.315-3.2,3.03-3.2
		c1.606,0,2.275,0.962,2.397,1.145c0.499,0.706,0.608,1.764,0.62,2.373h-4.501c0.17,0.961,0.766,1.508,1.727,1.508
		c0.998,0,1.4-0.584,1.582-0.839L118.022,58.372z"/>
	<path fill="#FFFEFD" d="M119.299,53.651h1.473v0.718c0.072-0.109,0.218-0.304,0.474-0.474c0.365-0.269,0.925-0.428,1.399-0.428
		c0.694,0,1.29,0.317,1.594,0.731c0.377,0.511,0.377,1.168,0.377,1.959v3.577h-1.448v-3.104c0-0.45,0-0.754-0.049-0.925
		c-0.133-0.535-0.523-0.815-0.997-0.815c-0.475,0-0.912,0.28-1.119,0.682c-0.231,0.451-0.231,1.071-0.231,1.521v2.641h-1.473V53.651
		z"/>
	<path fill="#FFFEFD" d="M126.902,57.933c0.365,0.45,0.913,0.779,1.752,0.779s1.204-0.414,1.204-0.718
		c0-0.39-0.437-0.487-0.632-0.523c-0.207-0.049-1.205-0.23-1.424-0.292c-1.448-0.341-1.715-1.18-1.715-1.728
		c0-1.034,0.936-1.983,2.603-1.983c0.925,0,1.595,0.292,2.008,0.584c0.304,0.194,0.499,0.401,0.621,0.548l-1.034,0.961
		c-0.171-0.329-0.585-0.925-1.656-0.925c-0.693,0-1.009,0.304-1.009,0.621c0,0.438,0.45,0.559,1.229,0.693
		c1.265,0.23,1.618,0.292,2.007,0.596c0.377,0.292,0.621,0.779,0.621,1.29c0,0.949-0.852,2.08-2.738,2.08
		c-1.083,0-2.153-0.34-2.92-1.082L126.902,57.933z"/>
	<path fill="#FFFEFD" d="M134.311,59.734h-1.448V53.65h1.448V59.734z M134.311,52.702h-1.448V51.23h1.448V52.702z"/>
	<path fill="#FFFEFD" d="M138.812,54.783c-0.912,0-1.57,0.729-1.57,1.849c0,1.253,0.767,1.947,1.643,1.947
		c1.058,0,1.594-0.925,1.557-1.935C140.418,55.633,139.834,54.783,138.812,54.783 M138.885,59.917c-1.898,0-3.163-1.387-3.163-3.249
		c0-1.86,1.289-3.2,3.102-3.2c1.691,0,3.139,1.182,3.151,3.2C141.975,58.566,140.722,59.917,138.885,59.917"/>
	<path fill="#FFFEFD" d="M143.336,53.651h1.473v0.718c0.072-0.109,0.218-0.304,0.474-0.474c0.365-0.269,0.925-0.428,1.399-0.428
		c0.694,0,1.29,0.317,1.594,0.731c0.377,0.511,0.377,1.168,0.377,1.959v3.577h-1.448v-3.104c0-0.45,0-0.754-0.049-0.925
		c-0.133-0.535-0.523-0.815-0.997-0.815c-0.475,0-0.912,0.28-1.119,0.682c-0.231,0.451-0.231,1.071-0.231,1.521v2.641h-1.473V53.651
		z"/>
	<path fill="#FFFEFD" d="M150.94,57.933c0.364,0.45,0.913,0.779,1.752,0.779s1.204-0.414,1.204-0.718
		c0-0.39-0.438-0.487-0.633-0.523c-0.207-0.049-1.205-0.23-1.424-0.292c-1.447-0.341-1.715-1.18-1.715-1.728
		c0-1.034,0.936-1.983,2.604-1.983c0.925,0,1.595,0.292,2.008,0.584c0.304,0.194,0.498,0.401,0.619,0.548l-1.032,0.961
		c-0.171-0.329-0.585-0.925-1.656-0.925c-0.692,0-1.009,0.304-1.009,0.621c0,0.438,0.45,0.559,1.229,0.693
		c1.266,0.23,1.619,0.292,2.008,0.596c0.377,0.292,0.621,0.779,0.621,1.29c0,0.949-0.853,2.08-2.738,2.08
		c-1.083,0-2.153-0.34-2.92-1.082L150.94,57.933z"/>
	<path fill="#FFFEFD" d="M163.105,54.783c-0.912,0-1.569,0.729-1.569,1.849c0,1.253,0.766,1.947,1.644,1.947
		c1.057,0,1.592-0.925,1.557-1.935C164.711,55.633,164.127,54.783,163.105,54.783 M163.18,59.917c-1.9,0-3.164-1.387-3.164-3.249
		c0-1.86,1.289-3.2,3.102-3.2c1.691,0,3.14,1.182,3.152,3.2C166.27,58.566,165.016,59.917,163.18,59.917"/>
	<path fill="#FFFEFD" d="M169.285,54.685v5.049h-1.46v-5.049h-0.913v-1.047h0.913v-0.693c-0.013-0.863-0.013-1.812,1.959-1.812
		c0.292,0,0.56,0.023,0.827,0.049v1.241c-0.122-0.024-0.256-0.037-0.462-0.037c-0.39,0-0.621,0.085-0.767,0.304
		c-0.049,0.086-0.098,0.269-0.098,0.451v0.498h1.326v1.047H169.285z"/>
	<path fill="#FFFEFD" d="M178.043,58.542c0.707,0,1.473-0.486,1.473-1.861c0-1.521-1.059-1.812-1.496-1.812
		c-0.669,0-1.436,0.487-1.46,1.789C176.535,57.909,177.229,58.542,178.043,58.542 M175.125,53.651h1.447v0.56
		c0.23-0.244,0.717-0.743,1.668-0.743c1.787,0,2.76,1.607,2.76,3.286c0,1.813-1.131,3.163-2.76,3.163
		c-0.842,0-1.363-0.402-1.668-0.681v2.481h-1.447V53.651z"/>
	<path fill="#FFFEFD" d="M185.963,56.705c-0.291,0.146-0.619,0.256-1.277,0.365c-0.522,0.073-1.215,0.194-1.215,0.839
		c0,0.476,0.4,0.719,0.984,0.719c0.742,0,1.266-0.342,1.423-0.706c0.085-0.183,0.085-0.365,0.085-0.547V56.705z M182.204,55.439
		c0.024-0.304,0.049-0.559,0.243-0.912c0.584-1.059,2.033-1.059,2.421-1.059c0.585,0,1.291,0.073,1.825,0.389
		c0.719,0.439,0.73,1.01,0.73,1.667v3.226c0,0.462,0,0.619,0.268,0.984h-1.729c-0.011-0.146-0.035-0.389-0.035-0.475
		c-0.316,0.268-0.961,0.621-1.802,0.621c-1.374,0-2.202-0.853-2.202-1.898c0-0.304,0.074-0.584,0.195-0.827
		c0.438-0.876,1.374-1.07,1.959-1.18c1.254-0.256,1.352-0.28,1.885-0.451c0-0.304-0.023-0.924-1.033-0.924
		c-0.609,0-0.938,0.194-1.082,0.389c-0.158,0.195-0.146,0.365-0.146,0.535L182.204,55.439z"/>
	<path fill="#FFFEFD" d="M190.574,53.651v0.863c0.183-0.315,0.584-1.033,1.947-0.997v1.496c-0.316,0.013-0.864,0.024-1.314,0.365
		c-0.621,0.476-0.633,1.095-0.633,2.105v2.251h-1.412v-6.084H190.574z"/>
	<path fill="#FFFEFD" d="M195.27,54.697v2.75c0,0.754,0,1.082,0.693,1.082c0.22,0,0.402-0.012,0.607-0.072v1.229
		c-0.437,0.073-0.729,0.098-1.058,0.098c-0.303,0-1.325,0-1.606-0.741c-0.097-0.244-0.097-0.634-0.097-1.241v-3.104h-0.888V53.65
		h0.888v-2.153h1.46v2.153h1.301v1.047H195.27z"/>
	<path fill="#FFFEFD" d="M199.102,59.734h-1.447V53.65h1.447V59.734z M199.102,52.702h-1.447V51.23h1.447V52.702z"/>
	<path fill="#FFFEFD" d="M204.771,55.804c-0.108-0.401-0.536-1.034-1.375-1.034s-1.509,0.669-1.509,1.886
		c0,1.096,0.572,1.898,1.533,1.898c0.925,0,1.277-0.706,1.459-1.193l1.254,0.658c-0.475,1.313-1.678,1.898-2.737,1.898
		c-1.69,0-3.017-1.303-3.017-3.226c0-1.86,1.338-3.224,3.065-3.224c1.533,0,2.312,1.021,2.627,1.728L204.771,55.804z"/>
	<rect x="207.143" y="51.144" fill="#FFFEFD" width="1.471" height="8.59"/>
	<path fill="#FFFEFD" d="M214.43,55.914c-0.133-0.949-0.719-1.277-1.362-1.277c-0.778,0-1.315,0.45-1.483,1.277H214.43z
		 M216.084,58.372c-0.754,1.01-1.728,1.545-2.969,1.545c-1.594,0-3.126-1.01-3.126-3.249c0-2.044,1.313-3.2,3.029-3.2
		c1.606,0,2.274,0.962,2.396,1.145c0.5,0.706,0.61,1.764,0.621,2.373h-4.501c0.171,0.961,0.767,1.508,1.728,1.508
		c0.998,0,1.4-0.584,1.582-0.839L216.084,58.372z"/>
	<path fill="#FFFEFD" d="M223.784,58.542c0.706,0,1.472-0.486,1.472-1.861c0-1.521-1.058-1.812-1.496-1.812
		c-0.668,0-1.436,0.487-1.461,1.789C222.276,57.909,222.969,58.542,223.784,58.542 M220.864,53.651h1.448v0.56
		c0.23-0.244,0.717-0.743,1.667-0.743c1.788,0,2.761,1.607,2.761,3.286c0,1.813-1.13,3.163-2.761,3.163
		c-0.839,0-1.363-0.402-1.667-0.681v2.481h-1.448V53.651z"/>
	<path fill="#FFFEFD" d="M229.562,51.144v3.126c0.463-0.462,1.096-0.802,1.934-0.802c0.756,0,1.34,0.292,1.668,0.657
		c0.5,0.535,0.512,1.156,0.512,1.849v3.761h-1.436v-3.347c-0.025-0.548-0.025-0.682-0.099-0.863c-0.049-0.122-0.255-0.67-1.058-0.67
		c-0.938,0-1.375,0.755-1.473,1.107c-0.049,0.195-0.049,0.292-0.049,0.973v2.8h-1.46v-8.591H229.562z"/>
	<path fill="#FFFEFD" d="M240.342,53.651l-1.545,5.305l-0.342,1.144c-0.413,1.277-0.863,1.728-1.994,1.728
		c-0.477,0-0.707-0.049-0.876-0.073v-1.277c0.134,0.024,0.243,0.036,0.388,0.036c0.111,0,0.428,0,0.658-0.157
		c0.17-0.11,0.34-0.377,0.34-0.499l-2.201-6.205h1.568l1.352,4.539l1.156-4.539H240.342z"/>
	<path fill="#FFFEFD" d="M241.984,57.933c0.364,0.45,0.912,0.779,1.752,0.779c0.838,0,1.203-0.414,1.203-0.718
		c0-0.39-0.437-0.487-0.633-0.523c-0.206-0.049-1.204-0.23-1.423-0.292c-1.448-0.341-1.715-1.18-1.715-1.728
		c0-1.034,0.936-1.983,2.603-1.983c0.926,0,1.596,0.292,2.008,0.584c0.305,0.194,0.498,0.401,0.621,0.548l-1.033,0.961
		c-0.172-0.329-0.586-0.925-1.656-0.925c-0.693,0-1.01,0.304-1.01,0.621c0,0.438,0.449,0.559,1.229,0.693
		c1.266,0.23,1.619,0.292,2.008,0.596c0.377,0.292,0.621,0.779,0.621,1.29c0,0.949-0.852,2.08-2.738,2.08
		c-1.082,0-2.152-0.34-2.92-1.082L241.984,57.933z"/>
	<path fill="#FFFEFD" d="M249.393,59.734h-1.449V53.65h1.449V59.734z M249.393,52.702h-1.449V51.23h1.449V52.702z"/>
	<path fill="#FFFEFD" d="M255.062,55.804c-0.109-0.401-0.536-1.034-1.375-1.034s-1.509,0.669-1.509,1.886
		c0,1.096,0.572,1.898,1.533,1.898c0.924,0,1.277-0.706,1.459-1.193l1.254,0.658c-0.475,1.313-1.679,1.898-2.737,1.898
		c-1.691,0-3.017-1.303-3.017-3.226c0-1.86,1.338-3.224,3.065-3.224c1.532,0,2.312,1.021,2.627,1.728L255.062,55.804z"/>
	<path fill="#FFFEFD" d="M257.992,57.933c0.365,0.45,0.913,0.779,1.752,0.779c0.84,0,1.205-0.414,1.205-0.718
		c0-0.39-0.439-0.487-0.633-0.523c-0.207-0.049-1.204-0.23-1.423-0.292c-1.449-0.341-1.716-1.18-1.716-1.728
		c0-1.034,0.937-1.983,2.603-1.983c0.925,0,1.595,0.292,2.009,0.584c0.305,0.194,0.498,0.401,0.62,0.548l-1.034,0.961
		c-0.17-0.329-0.584-0.925-1.654-0.925c-0.693,0-1.01,0.304-1.01,0.621c0,0.438,0.449,0.559,1.229,0.693
		c1.266,0.23,1.618,0.292,2.008,0.596c0.377,0.292,0.62,0.779,0.62,1.29c0,0.949-0.851,2.08-2.737,2.08
		c-1.082,0-2.154-0.34-2.92-1.082L257.992,57.933z"/>
</g>
</svg>
