<?xml version="1.0" encoding="utf-8"?>
<!-- Generator: Adobe Illustrator 16.0.0, SVG Export Plug-In . SVG Version: 6.00 Build 0)  -->
<!DOCTYPE svg PUBLIC "-//W3C//DTD SVG 1.1//EN" "http://www.w3.org/Graphics/SVG/1.1/DTD/svg11.dtd">
<svg version="1.1" id="Layer_1" xmlns="http://www.w3.org/2000/svg" xmlns:xlink="http://www.w3.org/1999/xlink" x="0px" y="0px"
	 width="338px" height="68px" viewBox="0 0 338 68" enable-background="new 0 0 338 68" xml:space="preserve">
<g>
	<defs>
		<rect id="SVGID_1_" x="0.763" y="0.575" width="336.475" height="66.85"/>
	</defs>
	<clipPath id="SVGID_2_">
		<use xlink:href="#SVGID_1_"  overflow="visible"/>
	</clipPath>
	<path clip-path="url(#SVGID_2_)" fill="#FFFDFC" d="M8.374,39.57c3.295,3.217,7.376,5.648,11.926,5.648
		c2.903,0,7.297-0.94,7.297-4.001c0-1.412-0.863-1.961-1.569-2.354c-1.805-0.941-4.629-1.178-6.983-1.569
		c-1.805-0.313-3.688-0.706-5.493-1.256c-2.511-0.706-5.021-1.726-6.826-3.53c-1.805-1.805-3.06-4.629-3.06-7.689
		c0-6.748,5.806-13.731,17.262-13.731c9.651,0,15.457,4.159,18.282,6.12l-7.454,6.905c-3.845-2.982-7.454-4.08-10.279-4.08
		c-4.707,0-5.806,1.883-5.806,3.06c0,2.354,2.589,2.825,6.512,3.531c8.239,1.491,17.811,3.688,17.811,13.417
		c0,9.651-9.729,14.359-19.38,14.359c-11.377,0-17.261-5.493-19.851-7.926L8.374,39.57z"/>
	<path clip-path="url(#SVGID_2_)" fill="#FFFDFC" d="M78.416,12.422L63.979,56.676c-0.942,2.667-1.806,5.179-3.846,7.453
		c-2.823,3.061-5.569,3.217-8.709,3.296h-8.708v-9.572h4.237c1.961-0.078,5.021-0.078,5.021-2.981c0-1.021-0.312-2.041-0.549-2.903
		l-12.24-39.546h12.868l6.748,29.346l6.748-29.346H78.416z"/>
	<path clip-path="url(#SVGID_2_)" fill="#FFFDFC" d="M91.674,16.738c1.412-1.648,4.551-5.335,11.612-5.335
		c6.748,0,9.18,2.51,11.377,4.786c2.354-1.962,5.649-4.786,12.161-4.786c6.748,0,10.2,3.373,11.455,5.884
		c1.021,2.197,1.1,5.022,1.1,9.416V53.38h-11.927V31.882c0-2.355,0-5.415-0.471-6.984c-1.099-3.452-4.314-3.687-5.257-3.687
		c-1.177,0-2.746,0.313-3.923,1.255c-2.276,1.805-2.276,4.158-2.276,8.631V53.38H103.6V29.135c0-1.805-0.079-4.237-1.177-5.807
		c-0.942-1.255-2.746-2.117-4.708-2.117c-0.941,0-2.196,0.234-3.295,0.94c-2.668,1.806-2.746,5.101-2.746,7.925V53.38H79.747V12.5
		h11.927V16.738z"/>
	<path clip-path="url(#SVGID_2_)" fill="#FFFDFC" d="M154.502,16.738c1.413-1.648,4.551-5.335,11.612-5.335
		c6.748,0,9.181,2.51,11.377,4.786c2.354-1.962,5.649-4.786,12.161-4.786c6.749,0,10.201,3.373,11.456,5.884
		c1.02,2.197,1.099,5.022,1.099,9.416V53.38H190.28V31.882c0-2.355,0-5.415-0.471-6.984c-1.099-3.452-4.316-3.687-5.257-3.687
		c-1.177,0-2.744,0.313-3.922,1.255c-2.275,1.805-2.275,4.158-2.275,8.631V53.38h-11.928V29.135c0-1.805-0.078-4.237-1.177-5.807
		c-0.941-1.255-2.746-2.117-4.708-2.117c-0.94,0-2.196,0.234-3.295,0.94c-2.668,1.806-2.746,5.101-2.746,7.925V53.38h-11.927V12.5
		h11.927V16.738z"/>
	<path clip-path="url(#SVGID_2_)" fill="#FFFDFC" d="M233.473,27.801c-0.234-1.727-0.549-4.001-2.275-5.806
		c-1.489-1.49-3.767-2.275-5.884-2.275c-2.903,0-4.944,1.412-6.121,2.668c-1.646,1.805-2.039,3.687-2.43,5.413H233.473z
		 M245.479,42.944c-1.413,2.118-2.825,4.159-4.944,6.12c-3.53,3.295-8.866,5.807-15.458,5.807c-12.159,0-20.714-7.768-20.714-21.186
		c0-9.886,4.866-22.597,21.029-22.597c2.433,0,9.494,0.236,14.752,5.885c5.335,5.728,5.648,13.73,5.805,18.359h-29.265
		c-0.079,5.101,2.824,10.2,9.336,10.2c6.591,0,8.866-4.315,10.357-7.218L245.479,42.944z"/>
	<path clip-path="url(#SVGID_2_)" fill="#FFFDFC" d="M250.494,0.575H262.5v12.789h7.924v7.375h-8.002v18.438
		c-0.079,2.511-0.079,4.63,3.139,4.63l4.314-0.157v9.416c-2.589,0.393-4.159,0.627-6.355,0.627c-4.158,0-8.709-0.234-11.299-4.002
		c-1.647-2.432-1.727-5.335-1.727-9.258V20.661h-5.963v-7.376h5.963V0.575z"/>
	<path clip-path="url(#SVGID_2_)" fill="#FFFDFC" d="M284.468,16.659c2.667-2.276,5.569-4.08,11.849-4.708v10.671l-4.004,0.628
		c-5.806,1.021-7.531,1.884-7.531,7.062V53.38h-12.084V12.343h11.771V16.659z"/>
	<path clip-path="url(#SVGID_2_)" fill="#FFFDFC" d="M337.238,12.422l-14.437,44.254c-0.941,2.667-1.805,5.179-3.846,7.453
		c-2.824,3.061-5.569,3.217-8.708,3.296h-8.709v-9.572h4.237c1.96-0.078,5.021-0.078,5.021-2.981c0-1.021-0.313-2.041-0.549-2.903
		l-12.24-39.546h12.867l6.749,29.346l6.746-29.346H337.238z"/>
</g>
</svg>
