<svg width="30" height="30" viewBox="0 0 30 30" xmlns="http://www.w3.org/2000/svg"><g fill="#44576A" fill-rule="evenodd"><path d="M15 29.875C6.875 29.875.375 23.25.375 15.25S6.875.5 15 .5s14.625 6.625 14.625 14.625-6.5 14.75-14.625 14.75zM15 1.75c-7.375 0-13.5 6-13.5 13.375s6.125 13.5 13.5 13.5 13.5-6 13.5-13.5S22.375 1.75 15 1.75z"/><path d="M15 29.875c-4.875 0-8.875-6.625-8.875-14.625S10.125.5 15 .5s8.875 6.625 8.875 14.625-4 14.75-8.875 14.75zM15 1.75c-4.25 0-7.625 6-7.625 13.5S10.75 28.75 15 28.75s7.625-6 7.625-13.5S19.25 1.75 15 1.75z"/><path d="M15 29.875c-.375 0-.625-.25-.625-.625V1.125c0-.375.25-.625.625-.625s.625.25.625.625V29.25c0 .375-.25.625-.625.625z"/><path d="M29.125 15.75H.875c-.375 0-.625-.25-.625-.625S.5 14.5.875 14.5H29c.375 0 .625.25.625.625s-.25.625-.5.625zM27 9H3c-.375 0-.625-.25-.625-.625s.25-.625.625-.625h24c.375 0 .625.25.625.625S27.375 9 27 9zm0 13.625H3c-.375 0-.625-.25-.625-.625s.25-.625.625-.625h24c.375 0 .625.25.625.625s-.25.625-.625.625z"/></g></svg>